<svg width="72" height="72" viewBox="0 0 72 72" fill="none" xmlns="http://www.w3.org/2000/svg">
<path d="M6.42952 55.2336C6.42952 55.2336 45.748 56.8588 65.5699 55.2336C68.6693 50.0631 70.4526 44.0134 70.4526 37.5466C70.4526 18.5188 55.0275 3.09375 35.9997 3.09375C16.9719 3.09375 1.54688 18.5188 1.54688 37.5466C1.54688 44.0135 3.33014 50.0632 6.42952 55.2336Z" fill="#FF9100"/>
<path d="M36.1941 41.8785L33.8189 40.1669C33.545 39.9154 33.4623 39.517 33.6133 39.1769L33.8901 38.5543C33.9614 38.3939 33.9801 38.2204 33.9513 38.0552L30.9818 40.4485C30.386 40.9287 29.6099 40.7656 29.2663 40.0816C28.3748 38.307 27.8557 36.5129 27.4928 34.3067C27.3655 33.5331 27.5383 32.7476 27.9636 32.1055C27.3793 32.4728 26.2695 33.1583 24.9219 33.9343C25.0532 35.825 25.9459 46.9404 30.9328 55.4811C32.5719 55.8046 34.2657 55.4811 35.9996 55.4811C36.1582 55.4811 36.3162 55.4779 36.4742 55.4751V42.5165C36.4744 42.2741 36.3727 42.0426 36.1941 41.8785Z" fill="#FFD185"/>
<path d="M33.4987 37.6565C34.3709 38.5658 32.6419 39.4491 33.6011 40.3302C35.5037 41.9949 35.9426 42.3693 36.001 42.4352C36.0589 42.3697 36.5098 41.9848 38.4009 40.3302C38.6862 40.0681 38.7723 39.6532 38.6151 39.2992C38.4241 38.7869 38.1707 38.5374 38.2743 38.0847C38.341 37.7858 38.5252 37.6349 38.7281 37.4194C40.0042 36.0582 41.3665 34.3347 42.0043 32.5892C42.2356 31.9564 42.3426 31.451 42.3859 31.0618C42.0469 30.306 41.9141 28.8676 41.8857 28.043C40.221 29.9819 38.3368 31.2443 35.7833 31.1655C33.4228 31.0934 31.6648 29.8473 30.1157 28.043C30.0897 28.7969 30.004 29.7116 29.7834 30.5807C29.7387 30.7567 29.6768 30.9265 29.6016 31.0895C29.7281 32.2949 30.4611 34.4896 33.4987 37.6565Z" fill="#FCAD6D"/>
<path d="M33.725 38.4633C33.914 38.0359 34.0723 37.5937 34.1886 37.1358C34.7039 35.1059 34.963 32.9893 35.0821 31.1047C33.0685 30.8309 31.5072 29.6637 30.1157 28.043C30.0897 28.7969 30.004 29.7116 29.7834 30.5807C29.7387 30.7568 29.6768 30.9265 29.6016 31.0895C29.7284 32.2949 30.4613 34.4896 33.499 37.6565C33.759 37.9276 33.7871 38.1964 33.725 38.4633Z" fill="#FD995B"/>
<path d="M33.721 37.598C32.3406 36.1549 30.9175 34.3508 30.2366 32.4864V32.4863C29.6457 30.8698 29.8991 30.1187 29.9043 30.0312L28.9285 30.9779L28.2438 31.6847C27.557 32.3936 27.2485 33.3868 27.4088 34.3608C27.7765 36.5959 28.3023 38.4133 29.2054 40.2111C29.5534 40.904 30.3397 41.0693 30.9434 40.5828L33.8377 38.2499C33.9255 38.1792 33.9594 38.0625 33.9276 37.9545C33.889 37.8236 33.8197 37.7008 33.721 37.598Z" fill="#FFF3E1"/>
<path d="M34.0296 0.122738C28.1191 0.928098 27.5573 4.27919 27.5546 5.50868C27.5541 5.76658 27.4112 6.0055 27.1795 6.11829C24.105 7.61397 25.7627 14.8221 25.7627 14.8221C26.0715 14.8428 26.3945 14.9678 26.6357 15.0845C26.6947 14.7172 26.7911 14.3555 26.927 14.0061C27.0307 13.7397 27.1603 13.4707 27.3223 13.2165C27.6036 12.7753 27.7316 12.255 27.6933 11.7348C27.5828 10.231 27.6361 7.26789 29.621 6.37479C31.3026 5.61808 33.3654 6.05627 34.6808 6.49375C35.5351 6.77782 36.4606 6.77782 37.3149 6.49375C38.6303 6.05627 40.6931 5.61822 42.3747 6.37479C44.354 7.26536 44.4126 10.2143 44.3034 11.7219C44.2654 12.2462 44.39 12.7718 44.6733 13.2163C44.8406 13.4787 44.9733 13.757 45.0788 14.0318C45.2097 14.3734 45.3028 14.7262 45.3603 15.0847C45.6641 14.9374 46.0983 14.7771 46.4698 14.8297C46.5154 13.2536 46.6608 11.5544 46.6608 11.5544C48.4123 2.97546 40.3936 -0.744496 34.0296 0.122738Z" fill="#543E5B"/>
<path d="M34.5931 6.46478C34.5756 6.43356 34.5592 6.40206 34.5406 6.37098C32.0715 2.20778 35.558 0.0321719 35.558 0.0321719L35.5209 0.00390625C35.0175 0.0162812 34.5187 0.0555156 34.0296 0.122172C28.1191 0.927531 27.5573 4.27848 27.5546 5.50797C27.5541 5.76587 27.4112 6.0048 27.1795 6.11758C24.105 7.61327 25.7627 14.8214 25.7627 14.8214C26.0713 14.8421 26.3945 14.9671 26.6357 15.0838C26.6947 14.7165 26.7911 14.3548 26.927 14.0054C27.0307 13.739 27.1603 13.47 27.3223 13.2158C27.6036 12.7746 27.7316 12.2543 27.6933 11.7341C27.5828 10.2303 27.6361 7.26719 29.621 6.37408C31.2664 5.63355 33.275 6.03728 34.5931 6.46478Z" fill="#422953"/>
<path d="M47.1793 15.0086C46.719 14.5867 45.802 14.8006 45.4054 15.0589C45.4923 15.5998 45.4973 16.1531 45.4222 16.6996L44.9543 20.1072C44.9543 20.3819 44.9456 20.6514 44.9297 20.9162C46.0706 21.2603 46.6373 20.2362 46.7328 19.5332C46.7738 19.2306 46.8411 18.9323 46.9343 18.6413C47.2379 17.6935 48.3327 16.0655 47.1793 15.0086Z" fill="#FCAD6D"/>
<path d="M46.1357 18.4763C45.789 18.4763 45.471 18.3534 45.2229 18.1488L44.9543 20.1052C44.9543 20.3798 44.9456 20.6494 44.9297 20.9142C46.0706 21.2583 46.6373 20.2341 46.7328 19.5312C46.7738 19.2285 46.8411 18.9303 46.9343 18.6393C46.9922 18.4585 47.0789 18.2529 47.1734 18.0312C46.9118 18.305 46.5441 18.4763 46.1357 18.4763Z" fill="#FD995B"/>
<path d="M24.9033 15.0086C25.3636 14.5867 26.2806 14.8006 26.6772 15.0589C26.5903 15.5998 26.5854 16.1531 26.6604 16.6996L27.1283 20.1072C27.1283 20.3819 27.137 20.6514 27.1529 20.9162C26.012 21.2603 25.4453 20.2362 25.3498 19.5332C25.3088 19.2306 25.2415 18.9323 25.1483 18.6413C24.8447 17.6935 23.7499 16.0655 24.9033 15.0086Z" fill="#FCAD6D"/>
<path d="M26.8485 18.0508C26.5881 18.3153 26.2261 18.4797 25.8256 18.4797C25.511 18.4797 25.2209 18.3773 24.9844 18.2058C25.0499 18.3624 25.1085 18.5095 25.1512 18.6428C25.2444 18.9338 25.3116 19.232 25.3527 19.5347C25.4482 20.2375 26.0149 21.2618 27.1558 20.9177C27.1399 20.6529 27.1312 20.3833 27.1312 20.1087L26.8485 18.0508Z" fill="#FD995B"/>
<path d="M44.7383 13.1753C44.4697 12.754 44.3425 12.2392 44.3796 11.7256C44.4984 10.0863 44.4001 7.20254 42.4079 6.30606C40.7347 5.55329 38.7038 5.95365 37.2949 6.42236C36.4604 6.70009 35.5413 6.69995 34.7068 6.42236C33.2978 5.95379 31.267 5.55301 29.5938 6.30606C28.737 6.69165 27.3419 7.91003 27.623 11.7387C27.6601 12.2431 27.5323 12.7533 27.2634 13.1755C26.6876 14.0785 26.3623 15.3741 26.5488 16.733L27.0161 20.1313C27.0161 20.6293 27.0439 21.1075 27.0935 21.5685C27.093 21.5671 27.0923 21.5658 27.0917 21.5644C27.9007 27.2946 31.1783 30.0025 33.5616 31.2172C35.0892 31.9959 36.8912 31.9984 38.4193 31.2207C40.8029 30.0078 44.1002 27.3002 44.91 21.5644C44.9095 21.5658 44.9088 21.5674 44.9082 21.5688C44.9573 21.1109 44.9848 20.6359 44.9848 20.1415L45.4527 16.7338C45.6387 15.3799 45.3174 14.0842 44.7383 13.1753Z" fill="#F9BA8F"/>
<path d="M32.167 21.5642C32.1676 21.5656 32.1681 21.5669 32.1687 21.5683C32.1191 21.1075 32.0912 20.6291 32.0912 20.1311L31.6241 16.7329C31.4376 15.3741 31.7627 14.0785 32.3387 13.1754C32.6076 12.7532 32.7354 12.243 32.6983 11.7386C32.4308 8.09615 33.6803 6.81689 34.5403 6.369C33.1408 5.9249 31.2028 5.58178 29.5939 6.306C28.737 6.69159 27.3419 7.90997 27.623 11.7386C27.6601 12.243 27.5323 12.7532 27.2634 13.1754C26.6874 14.0785 26.3623 15.3741 26.5488 16.7329L27.0161 20.1313C27.0161 20.6292 27.0439 21.1075 27.0935 21.5684C27.093 21.567 27.0923 21.5658 27.0917 21.5644C27.9007 27.2946 31.1783 30.0024 33.5616 31.2172C35.0892 31.9958 36.8912 31.9983 38.4193 31.2207C38.4563 31.2018 38.4942 31.1816 38.5316 31.162C36.158 29.9217 32.9644 27.2109 32.167 21.5642Z" fill="#FCAD6D"/>
<path d="M47.2649 34.0429C45.8321 33.2227 44.6454 32.4898 44.0341 32.1055C44.4595 32.7476 44.6321 33.5331 44.505 34.3067C44.1421 36.5129 43.623 38.307 42.7315 40.0816C42.3879 40.7654 41.6118 40.9287 41.016 40.4485L38.0465 38.0552C38.0177 38.2205 38.0364 38.3939 38.1077 38.5543L38.3845 39.1769C38.5355 39.5168 38.4528 39.9152 38.1789 40.1669L35.8037 41.8785C35.6251 42.0426 35.5234 42.2741 35.5234 42.5165V55.4977C35.6815 55.5005 35.8394 55.5038 35.998 55.5038C37.8106 55.5038 39.5792 55.8563 41.2874 55.5038C46.1635 47.1265 47.1087 36.1601 47.2649 34.0429Z" fill="#FFE8C2"/>
<path d="M38.2797 37.598C39.66 36.1549 41.0832 34.3508 41.7641 32.4864V32.4863C42.355 30.8698 42.1016 30.1187 42.0964 30.0312L43.0722 30.9779L43.757 31.6847C44.4438 32.3936 44.7524 33.3867 44.592 34.3607C44.2243 36.5958 43.6985 38.4133 42.7954 40.211C42.4474 40.9038 41.6611 41.0692 41.0574 40.5826L38.0391 38.15C38.0513 37.9476 38.1331 37.7509 38.2797 37.598Z" fill="#FFF3E1"/>
<path d="M50.457 55.5549L54.7388 37.5977C55.2587 37.7587 55.735 38.0401 56.1201 38.4245C56.7577 39.061 57.2653 39.7951 57.6687 40.5757C58.044 41.3016 58.2785 42.0918 58.3928 42.9009C58.6483 44.7081 59.227 48.9724 59.9743 55.5549H50.457Z" fill="#543E5B"/>
<path d="M54.7999 37.6173C52.5285 36.9258 49.4799 35.3164 47.135 33.9688C47.0686 35.1154 45.0947 46.7582 39.8633 55.5558H52.2222L52.331 52.3261C52.4121 49.9166 52.7042 47.519 53.2038 45.1605L54.8016 37.6201C54.8007 37.6188 54.8005 37.6182 54.7999 37.6173Z" fill="#422953"/>
<path d="M21.7672 55.4416L17.4855 37.4844C16.9656 37.6454 16.4893 37.9268 16.1041 38.3113C15.4665 38.9477 14.959 39.6819 14.5555 40.4624C14.1802 41.1883 13.9458 41.9785 13.8315 42.7876C13.576 44.5948 12.9973 48.8591 12.25 55.4416H21.7672Z" fill="#543E5B"/>
<path d="M17.4233 37.5062C19.6947 36.8148 22.7433 35.1876 25.0882 33.8398C25.1546 34.9865 27.1198 46.6471 32.3512 55.4446H20.0011L19.8924 52.2149C19.8112 49.8054 19.5193 47.4078 19.0195 45.0493L17.4219 37.5089C17.4224 37.5078 17.4227 37.5072 17.4233 37.5062Z" fill="#422953"/>
<path d="M23.6687 44.7622L25.9402 38.4466C25.3756 35.9837 25.1118 34.2474 25.0883 33.8398C22.7435 35.1875 19.6949 36.8146 17.4234 37.5062C17.4229 37.5072 17.4224 37.5078 17.4219 37.5089L19.0195 45.0493C19.1936 45.8712 19.3408 46.6979 19.4645 47.528C19.4646 47.5273 19.465 47.5266 19.4652 47.5257C20.3964 44.3324 23.6687 44.7622 23.6687 44.7622Z" fill="#382149"/>
<path d="M47.81 35.0005C47.8085 34.9964 47.807 34.9923 47.8056 34.9881C47.5887 34.3838 47.1596 33.8787 46.6197 33.5311L43.7562 31.6875C43.7562 31.6875 44.3229 33.4597 43.6484 36.921L46.4359 40.2409L48.8873 39.606L47.81 35.0005Z" fill="#72597C"/>
<path d="M49.1021 39.5185L46.742 40.0485C46.5686 40.0875 46.3876 40.0288 46.2701 39.8955L43.648 36.9219L39.6797 55.8455C41.4185 55.6637 43.2329 55.9338 44.8797 55.4388C47.7469 47.7981 49.1698 41.5822 49.5099 39.9166C49.5594 39.6749 49.3427 39.4644 49.1021 39.5185Z" fill="#72597C"/>
<path d="M24.1868 35.0005C24.1882 34.9964 24.1898 34.9923 24.1912 34.9881C24.408 34.3838 24.8372 33.8787 25.3771 33.5311L28.243 31.6875C28.243 31.6875 27.6738 33.4597 28.3482 36.921L25.5607 40.2409L23.1094 39.606L24.1868 35.0005Z" fill="#543E5B"/>
<path d="M22.8956 39.5185L25.2556 40.0485C25.429 40.0875 25.61 40.0288 25.7275 39.8955L28.3496 36.9219L32.3179 55.8455C30.5791 55.6637 28.7648 55.9338 27.1178 55.4388C24.2506 47.7981 22.8277 41.5822 22.4875 39.9166C22.4382 39.6749 22.655 39.4644 22.8956 39.5185Z" fill="#72597C"/>
<path d="M11.3102 61.5743L12.0264 59.9914C12.0264 59.9914 11.0397 59.7903 9.57422 59.6523C10.1288 60.3145 10.7081 60.9555 11.3102 61.5743Z" fill="#7E471C"/>
<path d="M27.9028 59.9893C27.9028 59.9893 23.8715 59.1696 19.5455 59.9893L18.1016 64.7448C18.1016 64.7448 21.9329 65.7586 27.1809 64.7448L27.9028 59.9893Z" fill="#7E471C"/>
<path d="M26.2906 70.6126L26.4591 69.5023C26.4591 69.5023 24.5205 69.1291 22.0312 69.0508C23.406 69.6612 24.8281 70.1839 26.2906 70.6126Z" fill="#7E471C"/>
<path d="M19.5469 59.9899L20.9908 55.2344H28.6262L27.9042 59.9899H19.5469Z" fill="#FFE8C2"/>
<path d="M17.5312 66.6354C19.286 67.752 21.149 68.713 23.1004 69.5016H26.4623L27.1843 64.7461H18.105L17.5312 66.6354Z" fill="#FFE8C2"/>
<path d="M9.86023 59.9899H12.0257L14.1773 55.2344H6.42969C7.43895 56.9182 8.58758 58.5088 9.86023 59.9899Z" fill="#FFE8C2"/>
<path d="M11.6809 59.9896L11.0742 61.3306C12.3317 62.6481 13.6938 63.8643 15.145 64.9697C16.1958 64.9473 17.2914 64.882 18.3348 64.7451L19.7788 59.9896C19.7788 59.9896 15.3903 59.3275 11.6809 59.9896Z" fill="#FFE8C2"/>
<path d="M11.6797 59.9899L13.8313 55.2344H21.2214L19.7774 59.9899H11.6797Z" fill="#7E471C"/>
<path d="M17.724 66.7563L18.3343 64.7461H14.8516C15.7727 65.4633 16.7314 66.1339 17.724 66.7563Z" fill="#7E471C"/>
<path d="M26.2289 69.5006L26.0703 70.5453C29.2145 71.4898 32.5467 71.9999 35.9986 71.9999C36.0756 71.9999 36.1521 71.9975 36.2291 71.9969V69.5006C36.2291 69.5006 29.8528 68.638 26.2289 69.5006Z" fill="#FFF3E1"/>
<path d="M31.2637 69.1267C29.5318 69.0879 27.6646 69.1588 26.2289 69.5004L26.0703 70.5451C27.9533 71.1108 29.9043 71.5193 31.9075 71.7571C30.851 70.9485 31.229 69.5005 31.229 69.5005C31.229 69.5005 31.2415 69.3657 31.2637 69.1267Z" fill="#FFE8C2"/>
<path d="M36.2313 59.9904C36.2313 59.9904 31.6482 59.4143 27.6751 59.9904L26.9531 64.746C26.9531 64.746 32.6555 65.4017 36.2313 64.746V59.9904Z" fill="#FFF3E1"/>
<path d="M27.6751 59.9903L26.9531 64.7458C26.9531 64.7458 29.1362 64.9967 31.6476 65.0329C31.8144 63.2487 32.0011 61.2614 32.1463 59.7375C30.7542 59.7199 29.1715 59.7733 27.6751 59.9903Z" fill="#FFE8C2"/>
<path d="M27.6758 59.9899L28.3978 55.2344H36.232V59.9899H27.6758Z" fill="#965B27"/>
<path d="M27.6758 59.9899H32.1229C32.2226 58.9414 32.3053 58.0825 32.3528 57.6122C32.5645 55.5176 36.0015 55.2344 36.0015 55.2344H28.3979L27.6758 59.9899Z" fill="#7E471C"/>
<path d="M36.2306 64.7461V69.5016H26.2305L26.9524 64.7461H36.2306Z" fill="#965B27"/>
<path d="M26.9524 64.7461L26.2305 69.5016H31.2305C31.2305 69.5016 31.4357 67.2911 31.6739 64.7461H26.9524Z" fill="#7E471C"/>
<path d="M60.6889 61.5744C61.291 60.9558 61.8703 60.3148 62.4249 59.6523C60.9596 59.7903 59.9727 59.9914 59.9727 59.9914L60.6889 61.5744Z" fill="#FFF3E1"/>
<path d="M44.0938 59.9893C44.0938 59.9893 48.125 59.1696 52.4511 59.9893L53.895 64.7448C53.895 64.7448 50.0637 65.7586 44.8157 64.7448L44.0938 59.9893Z" fill="#FFF3E1"/>
<path d="M45.5391 69.5025L45.7075 70.6127C47.17 70.1839 48.5922 69.6612 49.9669 69.0508C47.4777 69.1293 45.5391 69.5025 45.5391 69.5025Z" fill="#FFF3E1"/>
<path d="M52.4545 59.9899L51.0104 55.2344H43.375L44.097 59.9899H52.4545Z" fill="#965B27"/>
<path d="M53.8957 64.7461H44.8164L45.5384 69.5016H48.9003C50.8516 68.713 52.7146 67.752 54.4693 66.6354L53.8957 64.7461Z" fill="#965B27"/>
<path d="M59.9758 59.9899H62.1413C63.4141 58.5088 64.5625 56.9182 65.572 55.2344H57.8242L59.9758 59.9899Z" fill="#965B27"/>
<path d="M36 71.9999C39.4518 71.9999 42.7842 71.49 45.9283 70.5453L45.7696 69.5006C42.1457 68.638 36 69.5006 36 69.5006V71.9999Z" fill="#965B27"/>
<path d="M36 59.9904C36 59.9904 40.3526 59.4143 44.3257 59.9904L45.0477 64.746C45.0477 64.746 39.576 65.4017 36 64.746V59.9904Z" fill="#965B27"/>
<path d="M60.9272 61.3306L60.3206 59.9896C56.6111 59.3275 52.2227 59.9896 52.2227 59.9896L53.6667 64.7451C54.71 64.882 55.8056 64.9474 56.8565 64.9697C58.3076 63.8643 59.6697 62.6481 60.9272 61.3306Z" fill="#965B27"/>
<path d="M60.3192 59.9899L58.1676 55.2344H50.7773L52.2214 59.9899H60.3192Z" fill="#FFF3E1"/>
<path d="M44.3256 59.9899L43.6036 55.2344H36V59.9899H44.3256Z" fill="#FFF3E1"/>
<path d="M53.6641 64.7461L54.2744 66.7563C55.2668 66.1341 56.2257 65.4634 57.1468 64.7461H53.6641Z" fill="#FFF3E1"/>
<path d="M36 64.7461V69.5016H45.7696L45.0477 64.7461H36Z" fill="#FFF3E1"/>
<path d="M56.3355 9.73828C52.7675 13.8846 46.3249 22.809 51.3113 28.4127C57.9799 35.907 60.9684 31.0403 65.5615 39.2487C66.8217 41.5008 68.351 42.8698 69.9066 43.6728C70.2635 41.685 70.4509 39.6384 70.4509 37.5479C70.4509 26.1276 64.8929 16.0069 56.3355 9.73828Z" fill="#FFA219"/>
<path d="M15.6622 9.73828C19.2303 13.8846 25.6729 22.809 20.6865 28.4127C14.0179 35.907 11.0294 31.0403 6.43641 39.2487C5.17627 41.5008 3.64697 42.8698 2.09123 43.6728C1.73433 41.685 1.54688 39.6384 1.54688 37.5479C1.54688 26.1276 7.10508 16.0069 15.6622 9.73828Z" fill="#FFA219"/>
<path d="M49.1022 39.5185L46.7421 40.0485C46.5687 40.0875 46.3878 40.0288 46.2702 39.8955L43.6481 36.9219L42.0039 44.7626C42.0039 44.7626 42.8415 48.7902 47.539 47.5285C48.6705 43.7371 49.2991 40.9502 49.5102 39.9166C49.5595 39.6749 49.3428 39.4644 49.1022 39.5185Z" fill="#82688E"/>
</svg>
