<svg width="77" height="80" viewBox="0 0 77 80" fill="none" xmlns="http://www.w3.org/2000/svg">
<g clip-path="url(#clip0_1936_2398)" filter="url(#filter0_d_1936_2398)">
<path d="M8.88264 55.2336C8.88264 55.2336 48.4172 57.5373 68.023 55.2336C71.1224 50.0631 72.9057 44.0134 72.9057 37.5466C72.9057 18.5188 57.4807 3.09375 38.4528 3.09375C19.425 3.09375 4 18.5188 4 37.5466C4 44.0135 5.78327 50.0632 8.88264 55.2336Z" fill="#5CC563"/>
<path d="M25.1758 55.6367H15.3628V50.75H25.1758V55.6367Z" fill="#FCAD6D"/>
<path d="M15.3591 51.3828C14.8998 51.3828 14.5521 50.9677 14.6328 50.5154L15.2048 43.3662C15.7512 40.8573 16.9735 38.1618 19.6335 36.7924L19.6328 36.7909C20.5112 36.3725 25.5461 34.4628 27.922 33.6992C28.363 34.5352 28.9004 35.3127 29.5192 36.0173C28.4052 36.916 26.7066 38.5243 25.4563 40.7731V51.3827H15.3591V51.3828Z" fill="#FFC839"/>
<path d="M51.7305 50.75H61.5436V55.6367H51.7305V50.75Z" fill="#FCAD6D"/>
<path d="M61.5468 51.3828C62.0061 51.3828 62.3539 50.9677 62.2731 50.5154L61.7011 43.3662C61.1547 40.8573 59.9324 38.1618 57.2724 36.7924L57.2731 36.7909C56.3947 36.3725 51.3598 34.4628 48.9839 33.6992C48.5429 34.5352 48.0055 35.3127 47.3867 36.0173C48.5007 36.916 50.1994 38.5243 51.4497 40.7731V51.3827H61.5468V51.3828Z" fill="#FFDD40"/>
<path d="M47.4967 35.8881C45.3049 38.4558 42.0478 40.0874 38.4153 40.0874C34.7673 40.0874 31.4981 38.4418 29.3062 35.8555C28.0363 36.9132 26.184 38.7559 24.9416 41.3058C24.3749 42.4689 24.0938 43.7507 24.0938 45.0445V55.9764H52.7388V45.0584C52.7388 43.74 52.4457 42.4348 51.859 41.2541C50.5993 38.7189 48.735 36.9038 47.4967 35.8881Z" fill="#FFC839"/>
<path d="M31.0806 43.6711C31.0806 40.9828 34.9613 39.7762 34.9613 39.7762C34.9258 39.6983 34.894 39.6222 34.8659 39.5479C32.6764 38.8641 30.7554 37.5658 29.3062 35.8555C28.0363 36.9132 26.184 38.7559 24.9416 41.3058C24.3749 42.4689 24.0938 43.7507 24.0938 45.0445V55.9764H31.0807C31.0806 54.8566 31.0806 46.1842 31.0806 43.6711Z" fill="#FFB332"/>
<path d="M38.4153 37.0407C41.7889 37.0407 44.7295 35.1521 46.236 32.3767C46.0207 32.2313 45.8297 32.0914 45.6639 31.9643C45.1293 31.5538 44.744 30.976 44.579 30.3223C44.3623 29.4637 44.2778 28.5609 44.2522 27.8164C42.6689 29.6606 40.8657 30.917 38.4153 30.917C35.965 30.917 34.1618 29.661 32.5782 27.8164C32.5523 28.5687 32.4663 29.4827 32.2445 30.3495C32.0696 31.0331 31.6566 31.6304 31.0865 32.0463C30.9425 32.1513 30.7786 32.2648 30.5977 32.3828C32.105 35.1549 35.0441 37.0407 38.4153 37.0407Z" fill="#FCAD6D"/>
<path d="M38.3952 30.9168C35.9553 30.9099 34.1574 29.6559 32.5782 27.8164C32.5523 28.5688 32.4663 29.4827 32.2445 30.3495C32.0696 31.0331 31.6564 31.6304 31.0865 32.0463C30.9425 32.1513 30.7786 32.2648 30.5977 32.3828C31.7954 34.5854 33.8974 36.2272 36.4015 36.8094C37.7632 34.922 38.2429 32.6325 38.3952 30.9168Z" fill="#FD995B"/>
<path d="M36.4623 0.121677C30.6001 0.920427 30.0429 4.2441 30.0402 5.4636C30.0397 5.7194 29.8979 5.95635 29.6681 6.06815C26.6188 7.5516 28.2629 14.701 28.2629 14.701C28.5692 14.7214 28.8896 14.8454 29.1287 14.9613C29.1872 14.5969 29.2828 14.2383 29.4177 13.8915C29.5205 13.6273 29.6492 13.3605 29.8098 13.1083C30.0886 12.6708 30.2156 12.1547 30.1778 11.6387C30.0681 10.1473 30.121 7.20819 32.0897 6.3224C33.7575 5.57188 35.8036 6.00655 37.1083 6.44038C37.9556 6.72219 38.8735 6.72219 39.7209 6.44038C41.0256 6.00655 43.0715 5.57188 44.7395 6.3224C46.7026 7.20566 46.7607 10.1305 46.6524 11.6259C46.6147 12.1458 46.7383 12.6673 47.0193 13.1081C47.1852 13.3684 47.3169 13.6443 47.4213 13.9168C47.5511 14.2556 47.6435 14.6056 47.7006 14.9611C48.002 14.8152 48.4327 14.6561 48.801 14.7083C48.8462 13.145 48.9904 11.4597 48.9904 11.4597C50.7276 2.95133 42.7743 -0.738245 36.4623 0.121677Z" fill="#543E5B"/>
<path d="M37.0213 6.41205C37.0038 6.38097 36.9877 6.34989 36.9693 6.31895C34.5203 2.18978 37.9784 0.0318906 37.9784 0.0318906L37.9415 0.00390625C37.4422 0.0161406 36.9475 0.0550938 36.4623 0.121188C30.6001 0.919937 30.0429 4.24361 30.0402 5.46311C30.0397 5.71891 29.8979 5.95586 29.6681 6.06766C26.6188 7.55111 28.2629 14.7005 28.2629 14.7005C28.5692 14.721 28.8896 14.8449 29.1287 14.9608C29.1872 14.5964 29.2828 14.2378 29.4177 13.891C29.5206 13.6268 29.6492 13.36 29.8099 13.1078C30.0888 12.6703 30.2157 12.1542 30.1779 11.6382C30.0684 10.1468 30.1211 7.2077 32.0898 6.32191C33.7218 5.58756 35.714 5.98806 37.0213 6.41205Z" fill="#422953"/>
<path d="M49.5007 14.8856C49.0441 14.4671 48.1347 14.6793 47.7413 14.9355C47.8275 15.472 47.8323 16.0208 47.7579 16.5628L47.2939 19.9426C47.2939 20.215 47.2853 20.4823 47.2695 20.745C48.4011 21.0863 48.9632 20.0704 49.0579 19.3732C49.0986 19.0731 49.1652 18.7772 49.2577 18.4887C49.5589 17.5486 50.6447 15.9339 49.5007 14.8856Z" fill="#FCAD6D"/>
<path d="M48.4657 18.3281C48.1219 18.3281 47.8064 18.2062 47.5603 18.0033L47.2939 19.9438C47.2939 20.2162 47.2853 20.4835 47.2695 20.7462C48.4011 21.0875 48.9632 20.0716 49.0579 19.3744C49.0986 19.0743 49.1652 18.7784 49.2577 18.4899C49.3151 18.3106 49.4011 18.1065 49.4948 17.8867C49.2355 18.1583 48.8707 18.3281 48.4657 18.3281Z" fill="#FD995B"/>
<path d="M27.4108 14.8856C27.8674 14.4671 28.7768 14.6793 29.1702 14.9355C29.0841 15.472 29.0792 16.0208 29.1536 16.5628L29.6176 19.9426C29.6176 20.215 29.6262 20.4823 29.642 20.745C28.5104 21.0863 27.9483 20.0704 27.8536 19.3732C27.8129 19.0731 27.7462 18.7772 27.6538 18.4887C27.3527 17.5486 26.2668 15.9339 27.4108 14.8856Z" fill="#FCAD6D"/>
<path d="M29.3372 17.9023C29.0789 18.1648 28.7199 18.3277 28.3226 18.3277C28.0106 18.3277 27.7228 18.2262 27.4883 18.056C27.5532 18.2114 27.6113 18.3573 27.6537 18.4895C27.746 18.778 27.8127 19.0739 27.8535 19.374C27.9481 20.0712 28.5102 21.0871 29.6418 20.7458C29.6261 20.4831 29.6175 20.2158 29.6175 19.9434L29.3372 17.9023Z" fill="#FD995B"/>
<path d="M47.4906 13.8909C47.3753 13.59 47.2379 13.3135 47.0821 13.0691C46.8158 12.6513 46.6894 12.1406 46.7263 11.6312C46.8442 10.0053 46.7467 7.14514 44.7707 6.25582C43.111 5.50925 41.0968 5.90637 39.6994 6.37114C38.8717 6.64662 37.9601 6.64648 37.1325 6.37114C35.7349 5.90637 33.7208 5.50882 32.0613 6.25582C31.2115 6.63818 29.8277 7.84672 30.1066 11.6442C30.1434 12.1445 30.0167 12.6505 29.7499 13.0692C29.5986 13.3066 29.4645 13.5744 29.3513 13.865C29.0198 14.7165 28.9125 15.6614 29.0411 16.5977L29.5046 19.9682C29.5046 25.5501 32.8819 28.7752 34.3339 29.9028C35.4928 30.8029 36.9425 31.2986 38.416 31.2986C39.8893 31.2986 41.3391 30.8029 42.498 29.9028C43.95 28.7752 47.3274 25.55 47.3265 19.9782L47.7907 16.5984C47.918 15.6714 47.8142 14.7351 47.4906 13.8909Z" fill="#F9BA8F"/>
<path d="M39.3731 29.9025C37.921 28.775 34.5438 25.5499 34.5438 19.9679L34.0803 16.5974C33.9518 15.6611 34.0591 14.7163 34.3905 13.8648C34.5036 13.5741 34.6377 13.3064 34.7892 13.069C35.056 12.6503 35.1827 12.1442 35.1458 11.644C34.8807 8.03404 36.1178 6.76448 36.9707 6.31926C35.5825 5.87826 33.6584 5.53682 32.0613 6.2557C31.2115 6.63805 29.8278 7.84659 30.1067 11.644C30.1435 12.1442 30.0168 12.6503 29.7499 13.069C29.5986 13.3064 29.4644 13.5741 29.3512 13.8648C29.0198 14.7163 28.9126 15.6611 29.041 16.5974L29.5045 19.9679C29.5045 25.5499 32.8819 28.775 34.3338 29.9025C35.4927 30.8026 36.9424 31.2983 38.416 31.2983C39.2823 31.2983 40.14 31.1258 40.9356 30.8015C40.378 30.5744 39.8507 30.2735 39.3731 29.9025Z" fill="#FCAD6D"/>
<path d="M48.8965 33.5101C47.9271 32.6646 46.9096 32.3934 46.4026 32.3073C46.2145 32.2754 46.0256 32.3624 45.9293 32.5271C44.4187 35.1105 41.6152 36.8501 38.4126 36.8501C35.227 36.8501 32.4362 35.1292 30.9198 32.5684C30.8158 32.3927 30.6069 32.3051 30.4092 32.3562C29.254 32.6552 28.4087 33.2118 27.9848 33.5383C27.8002 33.6807 27.7514 33.9366 27.8668 34.1391C29.9567 37.8038 33.9005 40.2803 38.4126 40.2803C42.9461 40.2803 46.9061 37.7803 48.988 34.0869C49.0956 33.8961 49.0614 33.6539 48.8965 33.5101Z" fill="#FCE99A"/>
<path d="M30.9198 32.5665C30.8158 32.3908 30.6071 32.3031 30.4092 32.3543C29.254 32.6533 28.4087 33.2099 27.9848 33.5364C27.8002 33.6787 27.7514 33.9347 27.8668 34.1372C29.4009 36.8273 31.9346 38.8755 34.9581 39.7755C33.8291 37.2948 36.5167 36.6399 36.5167 36.6399L36.5158 36.6388C34.1393 36.1082 32.1261 34.6038 30.9198 32.5665Z" fill="#FFDD40"/>
<path d="M13.7634 61.5743L14.4796 59.9914C14.4796 59.9914 13.4928 59.7903 12.0273 59.6523C12.5821 60.3145 13.1613 60.9555 13.7634 61.5743Z" fill="#7E471C"/>
<path d="M30.356 59.9893C30.356 59.9893 26.3247 59.1697 21.9986 59.9893L20.5547 64.7448C20.5547 64.7448 24.386 65.7585 29.634 64.7448L30.356 59.9893Z" fill="#7E471C"/>
<path d="M28.7438 70.6126L28.9122 69.5023C28.9122 69.5023 26.9736 69.1291 24.4844 69.0508C25.8593 69.6612 27.2814 70.1839 28.7438 70.6126Z" fill="#7E471C"/>
<path d="M22 59.9899L23.4439 55.2344H31.0793L30.3573 59.9899H22Z" fill="#FFE8C2"/>
<path d="M19.9844 66.6354C21.7391 67.752 23.6021 68.713 25.5535 69.5016H28.9155L29.6374 64.7461H20.5581L19.9844 66.6354Z" fill="#FFE8C2"/>
<path d="M12.3134 59.9899H14.4788L16.6304 55.2344H8.88281C9.89208 56.9182 11.0407 58.5088 12.3134 59.9899Z" fill="#FFE8C2"/>
<path d="M14.1341 59.9896L13.5273 61.3306C14.7848 62.6481 16.1469 63.8643 17.5982 64.9697C18.6489 64.9473 19.7445 64.882 20.788 64.7451L22.232 59.9896C22.232 59.9896 17.8435 59.3275 14.1341 59.9896Z" fill="#FFE8C2"/>
<path d="M14.1328 59.9899L16.2844 55.2344H23.6745L22.2306 59.9899H14.1328Z" fill="#7E471C"/>
<path d="M20.1771 66.7563L20.7874 64.7461H17.3047C18.2258 65.4633 19.1847 66.1339 20.1771 66.7563Z" fill="#7E471C"/>
<path d="M28.6821 69.5006L28.5234 70.5453C31.6675 71.4898 34.9998 71.9999 38.4517 71.9999C38.5288 71.9999 38.6053 71.9975 38.6822 71.9969V69.5006C38.6822 69.5006 32.306 68.638 28.6821 69.5006Z" fill="#FFF3E1"/>
<path d="M33.6281 69.1249C31.9214 69.0904 30.0931 69.1647 28.6821 69.5005L28.5234 70.5452C30.4372 71.1202 32.421 71.5331 34.4587 71.769C33.3491 70.8832 33.6028 69.5006 33.6028 69.5006C33.6028 69.5006 33.612 69.3652 33.6281 69.1249Z" fill="#FFE8C2"/>
<path d="M38.6844 59.9904C38.6844 59.9904 34.1013 59.4143 30.1282 59.9904L29.4062 64.746C29.4062 64.746 35.1085 65.4017 38.6844 64.746V59.9904Z" fill="#FFF3E1"/>
<path d="M30.1282 59.9901L29.4062 64.7457C29.4062 64.7457 31.4792 64.9839 33.9092 65.0296C34.0335 63.2199 34.173 61.2143 34.2809 59.7348C32.9687 59.7289 31.5117 59.7896 30.1282 59.9901Z" fill="#FFE8C2"/>
<path d="M30.1289 59.9899L30.8509 55.2344H38.6851V59.9899H30.1289Z" fill="#965B27"/>
<path d="M30.1289 59.9899H34.263C34.3214 59.185 34.3716 58.5135 34.407 58.0794C34.5967 55.759 38.4546 55.2344 38.4546 55.2344H30.8509L30.1289 59.9899Z" fill="#7E471C"/>
<path d="M38.6837 64.7461V69.5016H28.6836L29.4056 64.7461H38.6837Z" fill="#965B27"/>
<path d="M29.4056 64.7461L28.6836 69.5016H33.6043C33.6043 69.5016 33.7538 67.2764 33.9279 64.7461H29.4056Z" fill="#7E471C"/>
<path d="M63.142 61.5744C63.7441 60.9558 64.3234 60.3148 64.878 59.6523C63.4127 59.7903 62.4258 59.9914 62.4258 59.9914L63.142 61.5744Z" fill="#FFF3E1"/>
<path d="M46.5469 59.9893C46.5469 59.9893 50.5782 59.1697 54.9042 59.9893L56.3482 64.7448C56.3482 64.7448 52.5168 65.7585 47.2688 64.7448L46.5469 59.9893Z" fill="#FFF3E1"/>
<path d="M47.9922 69.5025L48.1607 70.6127C49.6232 70.1839 51.0453 69.6612 52.42 69.0508C49.9308 69.1293 47.9922 69.5025 47.9922 69.5025Z" fill="#FFF3E1"/>
<path d="M54.9074 59.9899L53.4635 55.2344H45.8281L46.5501 59.9899H54.9074Z" fill="#965B27"/>
<path d="M56.3488 64.7461H47.2695L47.9915 69.5016H51.3534C53.3047 68.713 55.1677 67.752 56.9225 66.6354L56.3488 64.7461Z" fill="#965B27"/>
<path d="M62.4289 59.9899H64.5944C65.8672 58.5088 67.0157 56.9182 68.0251 55.2344H60.2773L62.4289 59.9899Z" fill="#965B27"/>
<path d="M38.4531 71.9999C41.9049 71.9999 45.2373 71.49 48.3814 70.5453L48.2228 69.5006C44.5989 68.638 38.4531 69.5006 38.4531 69.5006V71.9999Z" fill="#965B27"/>
<path d="M38.4531 59.9904C38.4531 59.9904 42.8057 59.4143 46.7788 59.9904L47.5008 64.746C47.5008 64.746 42.0291 65.4017 38.4531 64.746V59.9904Z" fill="#965B27"/>
<path d="M63.3802 61.3306L62.7735 59.9896C59.0641 59.3275 54.6758 59.9896 54.6758 59.9896L56.1197 64.7451C57.163 64.882 58.2588 64.9474 59.3095 64.9697C60.7606 63.8643 62.1227 62.6481 63.3802 61.3306Z" fill="#965B27"/>
<path d="M62.7723 59.9899L60.6207 55.2344H53.2305L54.6744 59.9899H62.7723Z" fill="#FFF3E1"/>
<path d="M46.7787 59.9899L46.0567 55.2344H38.4531V59.9899H46.7787Z" fill="#FFF3E1"/>
<path d="M56.1172 64.7461L56.7275 66.7563C57.7199 66.1341 58.6788 65.4634 59.5999 64.7461H56.1172Z" fill="#FFF3E1"/>
<path d="M38.4531 64.7461V69.5016H48.2226L47.5007 64.7461H38.4531Z" fill="#FFF3E1"/>
<path d="M58.7886 9.73828C55.2205 13.8846 48.7781 22.809 53.7644 28.4127C60.4329 35.907 63.4215 31.0403 68.0145 39.2487C69.2746 41.5008 70.8039 42.8698 72.3595 43.6728C72.7164 41.685 72.9038 39.6384 72.9038 37.5479C72.904 26.1276 67.3458 16.0069 58.7886 9.73828Z" fill="#88CE65"/>
<path d="M18.1154 9.73828C21.6835 13.8846 28.126 22.809 23.1396 28.4127C16.471 35.907 13.4825 31.0403 8.88953 39.2487C7.62939 41.5008 6.10009 42.8698 4.54436 43.6728C4.18745 41.685 4 39.6384 4 37.5479C4 26.1276 9.5582 16.0069 18.1154 9.73828Z" fill="#88CE65"/>
</g>
<defs>
<filter id="filter0_d_1936_2398" x="-1.54688" y="0" width="80" height="80" filterUnits="userSpaceOnUse" color-interpolation-filters="sRGB">
<feFlood flood-opacity="0" result="BackgroundImageFix"/>
<feColorMatrix in="SourceAlpha" type="matrix" values="0 0 0 0 0 0 0 0 0 0 0 0 0 0 0 0 0 0 127 0" result="hardAlpha"/>
<feOffset dy="4"/>
<feGaussianBlur stdDeviation="2"/>
<feComposite in2="hardAlpha" operator="out"/>
<feColorMatrix type="matrix" values="0 0 0 0 0 0 0 0 0 0 0 0 0 0 0 0 0 0 0.25 0"/>
<feBlend mode="normal" in2="BackgroundImageFix" result="effect1_dropShadow_1936_2398"/>
<feBlend mode="normal" in="SourceGraphic" in2="effect1_dropShadow_1936_2398" result="shape"/>
</filter>
<clipPath id="clip0_1936_2398">
<rect width="72" height="72" fill="white" transform="translate(2.45312)"/>
</clipPath>
</defs>
</svg>
