<svg width="72" height="72" viewBox="0 0 72 72" fill="none" xmlns="http://www.w3.org/2000/svg">
<g clip-path="url(#clip0_1936_2525)">
<path d="M66.9265 52.7458C69.184 48.1612 70.454 43.0029 70.454 37.5473C70.454 18.5191 55.0286 3.09375 36.0004 3.09375C16.9722 3.09375 1.54688 18.5191 1.54688 37.5473C1.54688 41.7758 2.31019 45.8255 3.70393 49.5684L66.9265 52.7458Z" fill="#EBFF00"/>
<path d="M67 52.5L60.5 52C61.6667 53.6667 64.2 56.8 65 56C65.8 55.2 66.6667 53.3333 67 52.5Z" fill="#EBFF00"/>
<path d="M53.9034 46.9024C53.4337 46.6772 52.9291 46.4848 52.3915 46.3255L43.7341 43.0216C43.266 42.8298 42.7941 42.6487 42.3163 42.4805C40.9072 44.2712 37.1414 48.0501 30.4725 48.0501C29.4005 48.0501 28.4046 47.9514 27.4803 47.7799C27.4963 47.8126 27.5109 47.8448 27.5275 47.8775C26.829 47.9802 25.0484 48.305 23.2434 49.1405C20.2042 50.5473 18.5977 52.7366 18.5977 55.4717V67.2833C23.3419 70.0654 28.8103 71.7462 34.6529 71.9711L50.2743 62.6706C50.2743 59.7082 50.2743 56.9105 50.2743 55.0199C50.2743 51.1102 52.9812 48.7057 54.9323 47.4798C54.6075 47.271 54.2665 47.0765 53.9034 46.9024Z" fill="#45304C"/>
<path d="M18.8086 55.471C18.8086 48.9976 27.8554 48.0465 27.8554 48.0465C27.8143 47.9716 27.7755 47.8975 27.7377 47.8238C22.7594 46.9868 19.835 44.0117 18.6294 42.4805C18.1535 42.648 17.6834 42.8282 17.2174 43.0193L8.55081 46.3263C8.01784 46.4845 7.51722 46.6753 7.05105 46.8985C6.68556 47.0734 6.34244 47.269 6.01562 47.4791C7.96666 48.705 10.6737 51.1095 10.6737 55.0192V60.9014C13.033 63.4583 15.7757 65.6549 18.8086 67.4047C18.8086 64.057 18.8086 59.2499 18.8086 55.471Z" fill="#34243A"/>
<path d="M40.7249 38.3664C38.7072 37.0115 35.3597 35.4961 30.4709 35.4961C25.537 35.4961 22.1719 37.0402 20.1602 38.4051V38.4681C20.5076 38.328 20.91 38.3333 21.2672 38.5149C22.9457 39.3686 26.4026 40.8231 30.4709 40.8231C34.5392 40.8231 37.9942 39.3705 39.6716 38.518C40.0106 38.3457 40.39 38.3331 40.7249 38.4518V38.3664Z" fill="#45304C"/>
<path d="M37.4427 35.8789C36.7388 36.699 35.9998 37.3849 35.2938 37.9332C33.9182 39.0013 32.2209 39.5816 30.4727 39.5816C30.3787 39.5816 30.2851 39.579 30.1914 39.5757V40.8791C30.2846 40.8807 30.3773 40.8836 30.4712 40.8836C33.4432 40.8836 36.0888 40.1179 37.9713 39.3654C37.6088 38.2005 37.4783 36.9121 37.4427 35.8789Z" fill="#FFAA7B"/>
<path d="M30.4753 39.5816C28.727 39.5816 27.0295 39.0013 25.6539 37.9332C24.9478 37.3849 24.209 36.6989 23.505 35.8789C23.4695 36.9121 23.339 38.2005 22.9766 39.3653C24.8597 40.118 27.5044 40.8835 30.4738 40.8835H30.4748L30.4753 39.5816Z" fill="#FC9460"/>
<path d="M42.6722 40.9448L41.4309 38.8863C41.0677 38.284 40.301 38.0607 39.6739 38.3793C37.9964 39.2318 34.5414 40.6845 30.4733 40.6845C30.3006 40.6845 30.1296 40.6809 29.9591 40.6759C29.2017 41.0376 27.684 41.9387 27.0565 43.5834C26.5701 44.8582 26.729 46.3023 27.5282 47.8793C27.4384 47.8925 27.3304 47.9095 27.2074 47.9306C28.2093 48.1325 29.2955 48.2512 30.4731 48.2512C37.4328 48.2512 41.2728 44.1838 42.5918 42.4531C42.9259 42.0146 42.9568 41.4168 42.6722 40.9448Z" fill="#6C5475"/>
<path d="M30.4728 40.6839C26.4045 40.6839 22.9475 39.2292 21.269 38.3756C20.6417 38.0566 19.8744 38.2801 19.5113 38.883L18.2714 40.9418C17.9872 41.4138 18.0183 42.0111 18.3521 42.4494C19.4951 43.9496 22.5343 47.2046 27.8549 48.0467C24.9036 42.6578 30.4728 40.6839 30.4728 40.6839Z" fill="#55405E"/>
<path d="M6.14437 47.3945C5.17814 47.9935 4.37391 48.7357 3.70312 49.5672C5.32636 53.9261 7.80628 57.8676 10.9388 61.187C10.9388 58.7891 10.9388 56.5904 10.9388 55.0194C10.9387 51.0182 8.10286 48.5927 6.14437 47.3945Z" fill="#45304C"/>
<path d="M54.7931 47.3945C55.7594 47.9935 56.5636 48.7357 57.2344 49.5672C55.6111 53.9261 53.1312 57.8676 49.9987 61.187C49.9987 58.7891 49.9987 56.5904 49.9987 55.0194C49.9988 51.0182 52.8346 48.5927 54.7931 47.3945Z" fill="#45304C"/>
<path d="M56.7945 49.0742C57.7607 49.6731 64.3292 54.6697 65 55.5012C63.3768 59.8602 55.1326 59.5473 52 62.8667C52 60.4688 52 58.2701 52 56.699C52.0001 52.6978 54.836 50.2723 56.7945 49.0742Z" fill="#45304C"/>
<path d="M42.8567 7.80616C40.2384 1.64931 34.3548 0.229 30.3207 0.0273438L30.3253 0.0435156C30.3253 0.0435156 34.2302 2.39013 31.4177 4.12445C28.6052 5.85878 29.0798 8.24659 30.1923 9.35922C31.1425 10.3094 27.5342 18.6052 26.4609 21.0062H43.1552C44.0197 17.4816 44.7255 12.2004 42.8567 7.80616Z" fill="#F9F0E1"/>
<path d="M30.4727 9.35949C29.3602 8.24701 28.8856 5.85919 31.6981 4.12473C34.5106 2.3904 30.6057 0.0437881 30.6057 0.0437881C28.9441 -0.0613994 27.5637 0.0449131 26.8017 0.132382C26.5282 0.163741 26.3908 0.475788 26.5465 0.703038C28.1087 2.98355 21.9884 0.917351 18.6619 7.89516C16.5536 12.3175 17.0832 17.5242 17.8541 21.0065H26.7414C27.8146 18.6054 31.4229 10.3097 30.4727 9.35949Z" fill="#EFE1CB"/>
<path d="M43.6645 20.5605C43.1193 20.0608 41.9004 20.3141 41.4307 20.6201C41.5336 21.2606 41.5394 21.9161 41.4505 22.5632L40.8963 26.5992C40.8963 26.9245 40.886 27.2437 40.8672 27.5574C42.2185 27.9649 43.0225 26.7519 43.1356 25.9194C43.1843 25.5611 43.2639 25.2078 43.3743 24.8632C43.7338 23.7406 45.0305 21.8125 43.6645 20.5605Z" fill="#FFAA7B"/>
<path d="M17.2837 20.5605C17.8289 20.0608 19.0479 20.3141 19.5176 20.6201C19.4146 21.2606 19.4089 21.9161 19.4977 22.5632L20.0518 26.5992C20.0518 26.9245 20.0621 27.2437 20.0809 27.5574C18.7296 27.9649 17.9255 26.7519 17.8125 25.9194C17.7638 25.5611 17.6842 25.2078 17.5738 24.8632C17.2143 23.7406 15.9177 21.8125 17.2837 20.5605Z" fill="#FC9460"/>
<path d="M40.7496 18.406C40.1356 17.4428 40.339 16.6559 40.349 15.7347C40.349 15.7347 40.8669 11.4934 35.6434 9.98747C34.1752 9.56419 32.1208 9.30642 30.0013 9.36858C28.944 10.4216 28.2873 11.8292 28.2873 13.6755C28.2873 14.7263 28.5093 15.5474 27.8772 16.6127C27.1956 17.7615 26.799 19.4186 27.0243 21.1809L27.5916 25.6193C27.5916 32.0002 30.762 36.3374 33.4589 38.5872C33.6888 38.7792 33.9283 38.9555 34.175 39.1178C34.5667 38.9092 34.9421 38.6674 35.2959 38.3926C37.931 36.3462 41.029 32.4015 41.029 26.598L41.5832 22.562C41.8015 20.9718 41.4225 19.4617 40.7496 18.406Z" fill="#FFC7AB"/>
<path d="M33.4824 38.2698C30.8471 36.0712 27.7491 31.8332 27.7491 25.598L27.1948 21.261C26.9747 19.5391 27.3622 17.9198 28.0282 16.7972C28.6459 15.7561 28.4289 14.9539 28.4289 13.927C28.4289 11.9048 29.2337 10.4198 30.4941 9.35938C25.8089 9.38905 20.6007 10.9438 20.6007 15.7345C20.6007 16.6902 20.8177 17.4369 20.2001 18.4059C19.5341 19.4508 19.1465 20.958 19.3666 22.5608L19.9209 26.5978C19.9209 32.4013 23.0189 36.346 25.6542 38.3924C27.0297 39.4606 28.7271 40.0408 30.4754 40.0408C31.8822 40.0408 33.2558 39.6645 34.4555 38.9611C34.1173 38.7573 33.7913 38.5275 33.4824 38.2698Z" fill="#FFAA7B"/>
<path d="M14.8522 36.5634C19.6169 29.1921 8.55633 24.9879 13.0255 11.875C5.98106 18.1834 1.54688 27.347 1.54688 37.5475C1.54688 39.0031 1.63941 40.4368 1.81491 41.8447C6.19228 41.9332 11.937 41.0737 14.8522 36.5634Z" fill="#CFD95A"/>
<path d="M49.6537 5.90625C49.369 7.11998 49.4153 8.71228 50.027 10.8031C52.0661 17.7727 43.3354 24.6909 48.4801 31.4837C52.784 37.1659 64.8108 32.0929 70.359 34.9972C69.4029 21.9215 61.1495 10.874 49.6537 5.90625Z" fill="#CFD95A"/>
<path d="M37.9369 31.2722C37.6286 29.4346 36.303 27.5947 34.5329 27.1933L31.8276 26.3985C31.3573 26.2604 30.8865 26.5016 30.6971 26.9111C30.6625 26.9861 30.5579 26.9861 30.5233 26.9111C30.3339 26.5016 29.8631 26.2603 29.3928 26.3985L27.4997 26.9547C27.2941 27.3362 26.9386 28.1591 27.128 29.0213C27.2545 29.5972 27.6015 30.0818 28.1566 30.4664C28.301 30.4231 28.447 30.3834 28.5956 30.3506L29.0788 30.2439C29.783 30.0885 30.3277 29.4009 30.5275 28.6683C30.5504 28.5843 30.67 28.5843 30.6929 28.6683C30.8926 29.4009 31.4372 30.0885 32.1415 30.2439L32.6248 30.3506C34.0137 30.6572 35.2307 31.4344 36.0915 32.5208C35.9133 33.3131 35.3545 34.5169 33.6228 35.1289C33.0495 35.3314 32.4508 35.2552 31.9731 34.9817C31.7781 35.3508 31.115 36.7541 31.5396 38.0658C31.7749 38.7928 32.3054 39.3578 33.1104 39.7518C33.1921 39.7146 33.2739 39.6776 33.3544 39.6367C36.0618 38.2583 39.6617 35.8634 40.813 29.7024C40.9076 29.1957 40.9557 28.6806 40.9557 28.1653C40.5174 29.2466 39.6064 30.5479 37.9369 31.2722Z" fill="#55405E"/>
<path d="M33.3541 39.6394C30.5665 38.4095 31.894 35.5877 32.1616 35.0792C31.577 34.8234 31.1285 34.2907 31.0437 33.6018C31.0419 33.5862 31.0399 33.5705 31.0382 33.5544C31.0138 33.3289 30.8249 33.1555 30.5951 33.1555H30.595C30.3652 33.1555 30.1764 33.3289 30.1519 33.5544C30.1501 33.5703 30.1484 33.5861 30.1464 33.6018C29.9976 34.8113 28.7296 35.5422 27.5676 35.1317C25.9689 34.5668 25.2812 33.4969 24.9856 32.7125C25.8183 31.5736 27.0296 30.7453 28.4261 30.395C26.395 29.1446 27.6703 27.0632 27.7943 26.8711L26.687 27.1964C24.8821 27.6057 23.5382 29.5109 23.2651 31.384C21.4184 30.6877 20.4571 29.3063 19.9961 28.1682V28.1688C19.9961 28.6835 20.044 29.1979 20.1385 29.7038C21.2879 35.8636 24.8703 38.2582 27.578 39.6382C29.391 40.5618 31.541 40.5625 33.3541 39.6394Z" fill="#34243A"/>
<path d="M11.3102 61.5743L12.0264 59.9914C12.0264 59.9914 11.0397 59.7903 9.57422 59.6523C10.1288 60.3145 10.7081 60.9555 11.3102 61.5743Z" fill="#7E471C"/>
<path d="M27.9028 59.9893C27.9028 59.9893 23.8715 59.1696 19.5455 59.9893L18.1016 64.7448C18.1016 64.7448 21.9329 65.7586 27.1809 64.7448L27.9028 59.9893Z" fill="#7E471C"/>
<path d="M26.2906 70.6126L26.4591 69.5023C26.4591 69.5023 24.5205 69.1291 22.0312 69.0508C23.406 69.6612 24.8281 70.1839 26.2906 70.6126Z" fill="#7E471C"/>
<path d="M19.5469 59.9899L20.9908 55.2344H28.6262L27.9042 59.9899H19.5469Z" fill="#FFE8C2"/>
<path d="M17.5312 66.6354C19.286 67.752 21.149 68.713 23.1004 69.5016H26.4623L27.1843 64.7461H18.105L17.5312 66.6354Z" fill="#FFE8C2"/>
<path d="M9.86023 59.9899H12.0257L14.1773 55.2344H6.42969C7.43895 56.9182 8.58758 58.5088 9.86023 59.9899Z" fill="#FFE8C2"/>
<path d="M11.6809 59.9896L11.0742 61.3306C12.3317 62.6481 13.6938 63.8643 15.145 64.9697C16.1958 64.9473 17.2914 64.882 18.3348 64.7451L19.7788 59.9896C19.7788 59.9896 15.3903 59.3275 11.6809 59.9896Z" fill="#FFE8C2"/>
<path d="M11.6797 59.9899L13.8313 55.2344H21.2214L19.7774 59.9899H11.6797Z" fill="#7E471C"/>
<path d="M26.2289 69.5006L26.0703 70.5453C29.2145 71.4898 32.5467 71.9999 35.9986 71.9999C36.0756 71.9999 36.1521 71.9975 36.2291 71.9969V69.5006C36.2291 69.5006 29.8528 68.638 26.2289 69.5006Z" fill="#FFF3E1"/>
<path d="M31.2637 69.1267C29.5318 69.0879 27.6646 69.1588 26.2289 69.5004L26.0703 70.5451C27.9533 71.1108 29.9043 71.5193 31.9075 71.7571C30.851 70.9485 31.229 69.5005 31.229 69.5005C31.229 69.5005 31.2415 69.3657 31.2637 69.1267Z" fill="#FFE8C2"/>
<path d="M36.2313 59.9904C36.2313 59.9904 31.6482 59.4143 27.6751 59.9904L26.9531 64.746C26.9531 64.746 32.6555 65.4017 36.2313 64.746V59.9904Z" fill="#FFF3E1"/>
<path d="M27.6751 59.9903L26.9531 64.7458C26.9531 64.7458 29.1362 64.9967 31.6476 65.0329C31.8144 63.2487 32.0011 61.2614 32.1463 59.7375C30.7542 59.7199 29.1715 59.7733 27.6751 59.9903Z" fill="#FFE8C2"/>
<path d="M27.6758 59.9899L28.3978 55.2344H36.232V59.9899H27.6758Z" fill="#965B27"/>
<path d="M27.6758 59.9899H32.1229C32.2226 58.9414 32.3053 58.0825 32.3528 57.6122C32.5645 55.5176 36.0015 55.2344 36.0015 55.2344H28.3979L27.6758 59.9899Z" fill="#7E471C"/>
<path d="M36.2306 64.7461V69.5016H26.2305L26.9524 64.7461H36.2306Z" fill="#965B27"/>
<path d="M26.9524 64.7461L26.2305 69.5016H31.2305C31.2305 69.5016 31.4357 67.2911 31.6739 64.7461H26.9524Z" fill="#7E471C"/>
<path d="M60.6889 61.5744C61.291 60.9558 61.8703 60.3148 62.4249 59.6523C60.9596 59.7903 59.9727 59.9914 59.9727 59.9914L60.6889 61.5744Z" fill="#FFF3E1"/>
<path d="M44.0938 59.9893C44.0938 59.9893 48.125 59.1696 52.4511 59.9893L53.895 64.7448C53.895 64.7448 50.0637 65.7586 44.8157 64.7448L44.0938 59.9893Z" fill="#FFF3E1"/>
<path d="M45.5391 69.5025L45.7075 70.6127C47.17 70.1839 48.5922 69.6612 49.9669 69.0508C47.4777 69.1293 45.5391 69.5025 45.5391 69.5025Z" fill="#FFF3E1"/>
<path d="M52.4545 59.9899L51.0104 55.2344H43.375L44.097 59.9899H52.4545Z" fill="#965B27"/>
<path d="M53.8957 64.7461H44.8164L45.5384 69.5016H48.9003C50.8516 68.713 52.7146 67.752 54.4693 66.6354L53.8957 64.7461Z" fill="#965B27"/>
<path d="M59.9758 59.9899H62.1413C63.4141 58.5088 64.5625 56.9182 65.572 55.2344H57.8242L59.9758 59.9899Z" fill="#965B27"/>
<path d="M36 71.9999C39.4518 71.9999 42.7842 71.49 45.9283 70.5453L45.7696 69.5006C42.1457 68.638 36 69.5006 36 69.5006V71.9999Z" fill="#965B27"/>
<path d="M36 59.9904C36 59.9904 40.3526 59.4143 44.3257 59.9904L45.0477 64.746C45.0477 64.746 39.576 65.4017 36 64.746V59.9904Z" fill="#965B27"/>
<path d="M60.9272 61.3306L60.3206 59.9896C56.6111 59.3275 52.2227 59.9896 52.2227 59.9896L53.6667 64.7451C54.71 64.882 55.8056 64.9474 56.8565 64.9697C58.3076 63.8643 59.6697 62.6481 60.9272 61.3306Z" fill="#965B27"/>
<path d="M60.3192 59.9899L58.1676 55.2344H50.7773L52.2214 59.9899H60.3192Z" fill="#FFF3E1"/>
<path d="M44.3256 59.9899L43.6036 55.2344H36V59.9899H44.3256Z" fill="#FFF3E1"/>
<path d="M53.6641 64.7461L54.2744 66.7563C55.2668 66.1341 56.2257 65.4634 57.1468 64.7461H53.6641Z" fill="#FFF3E1"/>
<path d="M36 64.7461V69.5016H45.7696L45.0477 64.7461H36Z" fill="#FFF3E1"/>
</g>
<defs>
<clipPath id="clip0_1936_2525">
<rect width="72" height="72" fill="white"/>
</clipPath>
</defs>
</svg>
