<svg width="24" height="24" viewBox="0 0 24 24" fill="none" xmlns="http://www.w3.org/2000/svg">
<path d="M21.9687 12C21.9687 15.31 19.2787 18 15.9688 18C15.2243 18 14.508 17.8643 13.8499 17.6141C13.5312 17.4929 13.4717 17.0851 13.6936 16.8262C14.8356 15.4938 15.4688 13.786 15.4688 12C15.4688 10.2082 14.8299 8.49432 13.6966 7.17467C13.474 6.91543 13.5329 6.50621 13.8524 6.38494C14.5099 6.13537 15.2252 6 15.9688 6C19.2787 6 21.9687 8.69 21.9687 12Z" fill="#2D1C42"/>
<path d="M13.9688 12C13.9688 13.77 13.1987 15.37 11.9688 16.46C10.9088 17.42 9.50875 18 7.96875 18C4.65875 18 1.96875 15.31 1.96875 12C1.96875 8.69 4.65875 6 7.96875 6C9.50875 6 10.9088 6.58 11.9688 7.54C13.1987 8.63 13.9688 10.23 13.9688 12Z" fill="#2D1C42"/>
</svg>
