<svg width="24" height="24" viewBox="0 0 24 24" fill="none" xmlns="http://www.w3.org/2000/svg">
<path d="M6.61141 22.1675C7.97772 22.3727 9.64551 22.0583 11.4673 21.9494C11.8072 22.0263 12.1472 22.0777 12.5 22.0777C12.8592 22.0777 13.212 22.0263 13.5648 21.9429C18.3052 22.1739 22 23.5145 22 13.867C22 7.31769 17.7471 2 12.5 2C7.25287 2 3 7.31769 3 13.867C3 19.1334 4.00709 21.1796 5.64281 21.8916C5.94429 22.0327 6.27144 22.1161 6.61141 22.1675ZM5.09757 10.1658C6.09183 11.5449 8.67049 11.2498 10.8964 9.50506C11.4608 9.06246 11.9548 8.55571 12.3525 8.04254C12.4038 8.04895 12.4551 8.05537 12.5064 8.0682C12.7245 8.10668 12.9234 8.18366 13.1479 8.25422C13.3468 8.35044 13.5648 8.42741 13.7573 8.54929C13.9562 8.65192 14.1357 8.79305 14.3153 8.91492C14.4757 9.05604 14.6553 9.19075 14.79 9.3447C14.9311 9.48582 15.0658 9.63977 15.1684 9.78731C15.2839 9.92843 15.3673 10.076 15.4506 10.2043C15.534 10.3325 15.6045 10.448 15.6431 10.5506C15.7393 10.7495 15.797 10.865 15.797 10.865C15.797 10.865 15.7777 10.7431 15.7393 10.5186C15.7265 10.4031 15.6944 10.2748 15.6559 10.1209C15.6174 9.96691 15.5725 9.78731 15.4955 9.6077C15.4314 9.42167 15.3416 9.22924 15.239 9.02397C15.1427 8.8187 15.0016 8.61985 14.8669 8.40176C14.7065 8.2029 14.559 7.98481 14.3665 7.79237C14.1869 7.5871 13.9688 7.41391 13.7571 7.22789C13.5583 7.08677 13.3467 6.93282 13.1222 6.81094C13.2184 6.61209 13.2953 6.40682 13.3594 6.21438C14.1548 6.5736 14.9696 7.02903 15.6174 7.67691C17.9972 10.0567 17.0606 12.8214 18.8953 10.9932C19.1839 10.7046 19.4212 10.4031 19.6073 10.1016C19.6714 10.1016 19.7356 10.0952 19.7869 10.108C20.0371 10.1722 20.1974 10.3646 20.2872 10.5186C20.5374 10.9355 20.5952 11.5385 20.4412 12.1415C20.2103 13.0395 19.6201 13.5719 19.1454 13.6296L18.7606 13.681L18.658 14.0594C17.7471 17.3629 15.2903 20.8781 12.5128 20.8781C9.73532 20.8781 7.28494 17.3629 6.36766 14.0594L6.26502 13.681L5.88015 13.6296C5.41188 13.5655 4.81533 13.0331 4.5844 12.1415C4.43045 11.5385 4.48818 10.9355 4.73835 10.5186C4.79608 10.4031 4.92438 10.2556 5.09757 10.1658Z" fill="#2D1C42"/>
</svg>
