<svg width="114" height="56" viewBox="0 0 114 56" fill="none" xmlns="http://www.w3.org/2000/svg">
<path d="M7.625 49.7521C9.69164 47.6855 11.7798 45.5957 13.8481 43.5273C15.9311 45.612 18.0253 47.707 20.0928 49.7753C18.0339 51.8342 15.9415 53.9275 13.8705 55.9992C11.8125 53.9412 9.71831 51.8471 7.625 49.7521Z" fill="#2D1C42"/>
<path d="M20.1062 6.24196C18.0431 8.30598 15.9497 10.4001 13.8762 12.4736C11.801 10.3975 9.7068 8.3034 7.63672 6.23164C9.70078 4.16762 11.7941 2.07348 13.8668 0C15.9411 2.07607 18.0353 4.1702 20.1062 6.24196Z" fill="#2D1C42"/>
<path d="M0.371094 28.0162C2.44634 25.9401 4.54051 23.8451 6.61833 21.7656C7.48044 22.6286 8.36233 23.5104 9.26573 24.4138C8.08615 25.5925 6.8885 26.7893 5.66589 28.011C6.87817 29.2224 8.0741 30.4183 9.24078 31.5841C8.34168 32.4832 7.45635 33.3694 6.58908 34.2366C4.53277 32.1795 2.43859 30.0845 0.371094 28.0162Z" fill="#2D1C42"/>
<path d="M13.8971 14.5078C15.9663 16.5779 18.0553 18.6685 20.1237 20.7369C19.2547 21.6067 18.3719 22.4894 17.4608 23.4006C16.2932 22.2339 15.0973 21.0389 13.8756 19.818C13.6106 20.0537 13.3808 20.3015 13.1408 20.5381C12.8982 20.7782 12.6581 21.0199 12.4164 21.2617C12.1815 21.4966 11.9466 21.7306 11.7126 21.9655C11.4708 22.2064 11.2299 22.4481 10.9881 22.689C10.7481 22.9291 10.5072 23.1691 10.2938 23.3825C9.39641 22.4843 8.51452 21.6024 7.66016 20.7481C9.70959 18.6961 11.8029 16.6019 13.8971 14.5078Z" fill="#2D1C42"/>
<path d="M13.8685 36.2057C15.092 34.9831 16.2879 33.7881 17.4675 32.6094C18.3701 33.5119 19.2511 34.3938 20.1115 35.2541C18.0405 37.3259 15.9464 39.42 13.8763 41.4918C11.8088 39.4235 9.71633 37.3302 7.64453 35.2584C8.49029 34.4127 9.37218 33.5308 10.2825 32.6206C11.4457 33.7846 12.6416 34.9805 13.8685 36.2057Z" fill="#2D1C42"/>
<path d="M22.0687 28.0075C20.8495 26.7884 19.6527 25.5924 18.4766 24.4172C19.3808 23.5129 20.2627 22.6302 21.185 21.707C23.2629 23.7814 25.3588 25.8738 27.4375 27.9499C25.3037 30.0844 23.2156 32.1734 21.1541 34.2357C20.2868 33.3684 19.4015 32.4831 18.4955 31.5772C19.6553 30.42 20.8461 29.2301 22.0687 28.0075Z" fill="#2D1C42"/>
<path d="M0.0195312 11.7883C0.0195312 8.08953 0.0195312 4.39082 0.0195312 0.699841C0.0384597 0.686936 0.0462034 0.678333 0.0548073 0.676612C0.0634111 0.674892 0.0754562 0.675751 0.0814789 0.680053C0.125358 0.715328 0.170959 0.748882 0.210536 0.788459C2.01906 2.59609 3.82587 4.40458 5.69118 6.269C3.81296 8.12911 1.94679 9.97804 0.080619 11.827C0.0591094 11.8141 0.0393201 11.8012 0.0195312 11.7883Z" fill="#2D1C42"/>
<path d="M0.0365776 15.2305C1.87608 17.0708 3.73364 18.9283 5.56712 20.7626C3.75085 22.5797 1.89328 24.4381 0.0460419 26.2862C-0.00816224 26.1167 -0.0184869 15.4714 0.0365776 15.2305Z" fill="#2D1C42"/>
<path d="M0.0078125 29.6836C1.89291 31.5695 3.74618 33.4227 5.60718 35.2846C5.52373 35.4317 0.453491 40.5294 0.0671791 40.8391C0.0585753 40.8365 0.0491108 40.8357 0.0413674 40.8322C0.0336239 40.8279 0.0224393 40.821 0.0215789 40.815C0.0155563 40.7212 0.0078125 40.6266 0.0078125 40.5328C0.0078125 36.9253 0.0078125 33.3186 0.0078125 29.6836Z" fill="#2D1C42"/>
<path d="M22.1172 6.25103C23.9825 4.38489 25.8366 2.5308 27.6839 0.683594C27.7381 0.853086 27.7553 11.4778 27.6383 11.8615C25.7962 9.98846 23.9532 8.1163 22.1172 6.25103Z" fill="#2D1C42"/>
<path d="M22.1094 35.2733C23.9755 33.4072 25.8297 31.5513 27.6881 29.6929C27.6812 29.6895 27.6907 29.6921 27.6976 29.6981C27.7044 29.7033 27.7139 29.7119 27.7139 29.7196C27.7191 33.3659 27.7234 37.0112 27.7268 40.6575C27.7268 40.7125 27.7182 40.7676 27.713 40.827C27.5212 40.7272 22.4639 35.7112 22.1094 35.2733Z" fill="#2D1C42"/>
<path d="M27.7126 26.3307C25.8378 24.456 23.9846 22.6027 22.1562 20.7745C24.0009 18.929 25.8576 17.0706 27.7272 15.201C27.6859 15.1786 27.6954 15.1821 27.7023 15.1881C27.7092 15.1941 27.7169 15.2027 27.7169 15.2105C27.7221 18.8644 27.7255 22.5193 27.7298 26.1733C27.7298 26.2189 27.7195 26.2645 27.7126 26.3307Z" fill="#2D1C42"/>
<path d="M6.59318 19.7319C4.76744 17.9053 2.91504 16.0521 1.05489 14.192C1.04801 14.2066 1.05059 14.1972 1.05661 14.1903C1.06177 14.1834 1.07038 14.1748 1.07726 14.1748C4.64871 14.1696 8.22016 14.1645 11.7925 14.1602C11.906 14.1602 12.0196 14.1645 12.1332 14.1696C12.1469 14.1705 12.1599 14.1903 12.1461 14.1791C10.2963 16.028 8.44472 17.8804 6.59318 19.7319Z" fill="#2D1C42"/>
<path d="M21.1535 19.7637C19.2976 17.9071 17.4435 16.053 15.5799 14.1877C15.5713 14.2109 15.5739 14.2015 15.5782 14.1929C15.5825 14.186 15.5902 14.1748 15.5963 14.1748C19.2632 14.1688 22.9293 14.1636 26.5963 14.1602C26.6307 14.1602 26.6651 14.1739 26.7038 14.1825C26.5877 14.3778 21.4236 19.5615 21.1535 19.7637Z" fill="#2D1C42"/>
<path d="M13.8581 28.9609C14.7641 29.8678 15.6399 30.7436 16.4865 31.5911C15.6107 32.4678 14.7245 33.3531 13.8607 34.2178C13.0226 33.3798 12.1416 32.4979 11.2305 31.5868C12.0797 30.7376 12.9659 29.8523 13.8581 28.9609Z" fill="#2D1C42"/>
<path d="M7.63281 27.9885C8.48459 27.1359 9.36649 26.254 10.226 25.3945C11.0933 26.2626 11.9812 27.1497 12.8502 28.0187C11.9958 28.8721 11.1139 29.7532 10.2553 30.6118C9.38972 29.7463 8.50266 28.8592 7.63281 27.9885Z" fill="#2D1C42"/>
<path d="M11.2148 24.3848C12.1062 23.4943 12.9821 22.6184 13.8631 21.7383C14.0283 21.8286 16.1612 23.9279 16.5028 24.3383C15.62 25.221 14.7398 26.1021 13.8468 26.9951C13.7143 26.9254 11.5865 24.8339 11.2148 24.3848Z" fill="#2D1C42"/>
<path d="M20.1241 28.023C19.262 28.8868 18.3862 29.7643 17.5077 30.6445C17.3339 30.5438 15.0298 28.257 14.8672 28.0264C15.7525 27.1402 16.6344 26.2583 17.4974 25.3945C18.3595 26.2566 19.2414 27.1394 20.1241 28.023Z" fill="#2D1C42"/>
<path d="M77.5728 31.0447C77.6958 31.0843 77.7819 31.1032 77.861 31.1385C78.1656 31.2727 78.4917 31.3742 78.7662 31.5549C79.6799 32.1589 79.7272 33.5673 78.8746 34.2556C78.5708 34.4999 78.2258 34.6643 77.8533 34.7753C77.288 34.943 76.7081 35.0549 76.1213 35.0626C74.2887 35.0876 72.4561 35.0927 70.6235 35.1005C70.331 35.1013 70.3026 35.06 70.3026 34.7236C70.3017 32.7904 70.3017 30.8571 70.3017 28.923C70.3017 28.4774 70.2991 28.0326 70.3026 27.5869C70.3052 27.2944 70.3439 27.2539 70.639 27.2539C72.1077 27.2522 73.5755 27.2436 75.0441 27.2591C75.8236 27.2677 76.6006 27.3339 77.356 27.5542C77.7191 27.66 78.0495 27.8244 78.3592 28.0446C79.1989 28.6426 79.3013 30.2979 78.0555 30.8365C77.9084 30.9002 77.7604 30.9638 77.5728 31.0447ZM72.5611 33.6422C72.6299 33.6525 72.6789 33.668 72.7271 33.6671C73.7389 33.6525 74.7508 33.6439 75.7617 33.6146C76.105 33.6052 76.444 33.5372 76.7589 33.3815C77.0488 33.2386 77.1676 33.0003 77.1572 32.6906C77.1469 32.3903 76.9938 32.1804 76.7245 32.0462C76.3614 31.8664 75.9699 31.8122 75.5759 31.8018C74.6552 31.7777 73.7346 31.7726 72.814 31.7623C72.7349 31.7614 72.6566 31.776 72.5611 31.7855C72.5611 32.4032 72.5611 33.0063 72.5611 33.6422ZM72.5465 30.3504C72.6179 30.3616 72.6574 30.3736 72.6962 30.3728C73.6366 30.3616 74.577 30.3616 75.5165 30.3297C75.7935 30.3203 76.0732 30.2377 76.3407 30.1542C76.6075 30.0708 76.74 29.8634 76.7434 29.5761C76.7477 29.2835 76.6427 29.0478 76.3622 28.9489C76.1084 28.8594 75.8383 28.7759 75.5724 28.7656C74.6329 28.7286 73.6925 28.7234 72.7529 28.708C72.6867 28.7071 72.6196 28.7277 72.5456 28.7398C72.5465 29.2801 72.5465 29.8041 72.5465 30.3504Z" fill="#2D1C42"/>
<path d="M75.455 54.7624C75.4086 54.7831 75.375 54.7891 75.3561 54.808C74.7392 55.4326 73.9614 55.7449 73.12 55.8792C71.7304 56.1003 70.3538 56.0246 69.0202 55.5342C68.4033 55.3079 67.8561 54.968 67.4122 54.4759C66.7574 53.7498 66.5243 52.8773 66.5578 51.9232C66.612 50.3874 67.3244 49.2647 68.7182 48.6048C69.0805 48.4327 69.4728 48.3097 69.8643 48.2142C70.8752 47.969 71.9034 47.9191 72.941 47.9913C73.6 48.0378 74.2496 48.1273 74.8794 48.3294C75.9085 48.659 76.6742 49.2845 77.082 50.3066C77.1044 50.3634 77.1268 50.4193 77.1448 50.4769C77.2386 50.7703 77.1982 50.8426 76.897 50.8761C76.3842 50.9338 75.8706 50.9845 75.3569 51.0344C75.1092 51.0585 75.0782 51.0439 74.9904 50.8176C74.7925 50.3074 74.4252 49.9865 73.9063 49.8394C72.793 49.5245 71.6702 49.5099 70.5431 49.7611C70.4252 49.7878 70.3099 49.8273 70.1955 49.8686C69.1906 50.23 68.6812 51.0869 68.806 52.1899C68.8938 52.9685 69.311 53.5157 69.9942 53.8762C70.5052 54.1455 71.0585 54.2565 71.6263 54.3056C72.5134 54.3821 73.3858 54.3305 74.2212 53.9803C74.506 53.8607 74.7598 53.699 74.9603 53.4624C75.0283 53.3815 75.0816 53.2877 75.1702 53.1578C75.0171 53.1484 74.9199 53.138 74.8227 53.1372C74.3572 53.1355 73.8909 53.1372 73.4254 53.1363C72.9281 53.1355 72.9272 53.1355 72.9272 52.6235C72.9272 52.4308 72.9212 52.239 72.9298 52.0462C72.9384 51.8518 72.9961 51.7941 73.1896 51.7873C73.4219 51.7795 73.6551 51.7847 73.8883 51.7847C74.9113 51.7847 75.9343 51.7847 76.9564 51.7847C77.0373 51.7847 77.119 51.783 77.199 51.7881C77.3289 51.7967 77.4029 51.8656 77.4081 51.9998C77.4098 52.0505 77.4107 52.1013 77.4107 52.1512C77.4107 53.2542 77.4107 54.358 77.4107 55.461C77.4107 55.5118 77.4098 55.5625 77.409 55.6125C77.4055 55.7604 77.3281 55.837 77.1818 55.8379C76.7869 55.8396 76.392 55.837 75.9971 55.8387C75.8474 55.8396 75.7863 55.7449 75.745 55.6202C75.6495 55.3397 75.5531 55.0541 75.455 54.7624Z" fill="#2D1C42"/>
<path d="M46.993 32.4002C46.3692 32.4002 45.803 32.4002 45.2369 32.4002C45.156 32.4002 45.0752 32.4002 44.9943 32.3976C44.8652 32.3924 44.7757 32.3313 44.7732 32.198C44.7663 31.8848 44.7671 31.5708 44.7714 31.2576C44.7732 31.1217 44.8583 31.0614 44.99 31.0589C45.0605 31.058 45.1319 31.0554 45.2025 31.0554C46.407 31.0554 47.6124 31.0554 48.817 31.0554C48.8875 31.0554 48.9589 31.0571 49.0295 31.058C49.1646 31.0597 49.2334 31.1328 49.2437 31.2628C49.2497 31.3333 49.2497 31.4039 49.2497 31.4753C49.2497 32.5378 49.2497 33.6004 49.2497 34.6629C49.2497 34.7034 49.2506 34.7438 49.2489 34.7842C49.2368 35.0535 49.199 35.094 48.9202 35.0983C48.5967 35.1034 48.2723 35.1026 47.948 35.0983C47.6589 35.0948 47.652 35.0871 47.5591 34.8187C47.467 34.5545 47.3784 34.2895 47.2889 34.0271C47.2407 34.04 47.2167 34.0392 47.2055 34.0504C46.5335 34.7309 45.6817 35.0389 44.7663 35.1688C43.4766 35.3504 42.2015 35.26 40.9625 34.8307C40.3121 34.6053 39.733 34.262 39.2633 33.7518C38.7651 33.2115 38.4924 32.5662 38.4192 31.8427C38.3685 31.3385 38.3797 30.8317 38.4984 30.3336C38.8055 29.0447 39.6324 28.2196 40.8326 27.7353C41.5235 27.4565 42.2505 27.3154 42.9887 27.2629C44.041 27.1889 45.0932 27.2018 46.1308 27.4307C46.9129 27.6036 47.6408 27.8893 48.2156 28.4769C48.5761 28.8451 48.829 29.2788 48.9856 29.7683C49.0708 30.0333 49.0174 30.115 48.7326 30.1434C48.219 30.1942 47.7054 30.2415 47.1908 30.2837C46.919 30.306 46.9112 30.3009 46.8088 30.0471C46.6135 29.5618 46.2659 29.2392 45.7635 29.1153C45.3436 29.0112 44.9143 28.9217 44.4841 28.883C43.8078 28.8219 43.1281 28.8451 42.4613 28.9983C42.0122 29.1015 41.5932 29.271 41.2508 29.5937C40.8722 29.9507 40.6528 30.3895 40.6425 30.9074C40.6364 31.2275 40.6511 31.5596 40.7302 31.8676C40.8765 32.4363 41.2662 32.8295 41.7747 33.11C42.2161 33.3535 42.6936 33.4808 43.1892 33.5367C44.0298 33.6314 44.8669 33.6331 45.6852 33.3775C46.0052 33.2777 46.315 33.153 46.5765 32.9353C46.74 32.8002 46.8837 32.6488 46.993 32.4002Z" fill="#2D1C42"/>
<path d="M63.7649 27.2487C64.7629 27.2229 65.7463 27.3227 66.6893 27.6729C67.6667 28.036 68.4557 28.6314 68.8807 29.607C69.5716 31.1944 69.2576 33.5329 67.098 34.5937C66.4544 34.9103 65.7713 35.0884 65.0649 35.1727C63.9008 35.3104 62.741 35.2863 61.595 35.0127C60.929 34.8535 60.307 34.5954 59.7563 34.1799C58.9072 33.538 58.452 32.6768 58.347 31.628C58.2946 31.1015 58.3307 30.5766 58.4752 30.063C58.7772 28.9893 59.4569 28.245 60.4687 27.7959C61.2474 27.4509 62.0725 27.3098 62.914 27.2513C63.197 27.2324 63.4818 27.2487 63.7649 27.2487ZM63.7201 28.8559C63.1643 28.8482 62.5509 28.8963 61.9675 29.1278C60.6795 29.638 60.3319 30.7633 60.6382 31.8887C60.8508 32.6673 61.416 33.1164 62.1542 33.3737C62.6085 33.532 63.0817 33.5793 63.5575 33.5879C64.2579 33.6008 64.9539 33.5604 65.6052 33.2627C66.1912 32.9943 66.6256 32.5744 66.8468 31.961C67.2804 30.7565 66.6919 29.5193 65.4882 29.0925C64.9367 28.8963 64.3637 28.855 63.7201 28.8559Z" fill="#2D1C42"/>
<path d="M84.6797 45.5975C83.5707 45.6087 82.5331 45.4728 81.5367 45.0891C81.079 44.9127 80.6617 44.6701 80.3193 44.3122C79.9786 43.956 79.7816 43.5318 79.7308 43.0422C79.699 42.736 79.7514 42.6783 80.0517 42.6766C80.5981 42.6732 81.1453 42.6809 81.6916 42.6732C81.8714 42.6706 81.9764 42.7299 82.022 42.9089C82.1141 43.2685 82.3661 43.4939 82.6819 43.6591C83.0553 43.8544 83.4571 43.9577 83.8727 43.9912C84.4887 44.0411 85.1056 44.0609 85.7191 43.9499C86.0124 43.8975 86.2843 43.7916 86.5175 43.6023C86.7997 43.3735 86.7971 43.0801 86.4891 42.8814C86.305 42.7626 86.0968 42.6611 85.8851 42.6095C85.3164 42.4701 84.7399 42.3634 84.1669 42.2404C83.4261 42.0812 82.6819 41.935 81.948 41.7517C81.5058 41.6407 81.0911 41.4454 80.7297 41.1555C80.1111 40.6582 79.896 39.938 80.1558 39.2317C80.3021 38.8333 80.5817 38.5486 80.9353 38.3317C81.3896 38.053 81.8904 37.893 82.4092 37.7923C83.9381 37.4972 85.4644 37.4791 86.9812 37.8775C87.4562 38.0022 87.8881 38.2173 88.2718 38.5279C88.7949 38.9503 89.0281 39.5147 89.0651 40.1695C89.0806 40.4414 89.0333 40.4861 88.7528 40.4878C88.2262 40.4921 87.6997 40.4913 87.174 40.4878C86.915 40.4861 86.8685 40.4534 86.853 40.1962C86.8341 39.8804 86.6706 39.6696 86.4194 39.5079C86.1587 39.3401 85.8696 39.2308 85.565 39.2214C84.746 39.1956 83.9252 39.1637 83.1147 39.3323C82.9684 39.3633 82.8196 39.4124 82.6888 39.4838C82.3928 39.6455 82.3532 39.9733 82.6208 40.1815C82.792 40.3149 83.0002 40.4259 83.2085 40.4818C83.686 40.6083 84.1738 40.6995 84.6591 40.7958C85.4816 40.9593 86.311 41.0918 87.1258 41.2854C87.5233 41.38 87.913 41.5504 88.2744 41.7448C88.7459 41.9978 89.078 42.3875 89.1623 42.9442C89.2535 43.543 89.1107 44.0678 88.6727 44.4989C88.394 44.7733 88.0567 44.9566 87.6971 45.1002C86.7911 45.4616 85.8438 45.5889 84.8759 45.6001C84.7933 45.5984 84.7124 45.5975 84.6797 45.5975Z" fill="#2D1C42"/>
<path d="M74.5936 45.5989C73.3581 45.6067 72.2706 45.4673 71.2338 45.0362C70.857 44.8797 70.5128 44.6706 70.2177 44.3858C69.8305 44.0124 69.6094 43.5599 69.5535 43.0247C69.5251 42.7494 69.581 42.6788 69.8615 42.6771C70.4087 42.6737 70.955 42.6737 71.5023 42.6771C71.7561 42.6788 71.7681 42.6823 71.8464 42.9266C71.9557 43.2682 72.1897 43.4919 72.4951 43.6536C72.8582 43.8455 73.2488 43.9505 73.6549 43.9866C74.2916 44.0442 74.9292 44.0632 75.5615 43.947C75.8644 43.892 76.1457 43.7784 76.3789 43.571C76.6112 43.3637 76.6224 43.1116 76.3703 42.9301C76.1776 42.7907 75.9513 42.6728 75.7224 42.6143C75.1546 42.4698 74.5773 42.3657 74.0042 42.2426C73.2531 42.0809 72.4994 41.9329 71.7543 41.7462C71.3328 41.6404 70.937 41.4511 70.5868 41.1809C69.6077 40.4247 69.6361 39.1109 70.6513 38.4037C71.1435 38.0613 71.7053 37.8883 72.2835 37.7799C73.7212 37.5089 75.1597 37.4891 76.5931 37.8203C77.1317 37.9451 77.6316 38.1568 78.067 38.5052C78.609 38.9388 78.8671 39.5093 78.8809 40.195C78.8861 40.441 78.8482 40.484 78.6073 40.4866C78.061 40.4918 77.5137 40.4918 76.9665 40.4866C76.7394 40.4849 76.7041 40.4574 76.6869 40.2242C76.6594 39.8491 76.4598 39.5953 76.1346 39.4516C75.8971 39.3466 75.6398 39.2374 75.3869 39.2262C74.579 39.1901 73.7668 39.1634 72.9658 39.3277C72.8281 39.3561 72.6887 39.3957 72.5631 39.4559C72.206 39.6271 72.1691 39.9954 72.4951 40.2259C72.6577 40.3404 72.8479 40.435 73.0389 40.484C73.5087 40.6036 73.9827 40.7095 74.4611 40.7895C75.4385 40.9538 76.4271 41.0691 77.364 41.4098C77.6927 41.5294 78.0162 41.6903 78.307 41.8847C79.2638 42.5223 79.1932 43.9358 78.4206 44.5708C77.9388 44.9666 77.3787 45.1842 76.7867 45.3391C76.0279 45.5378 75.2544 45.6093 74.5936 45.5989Z" fill="#2D1C42"/>
<path d="M57.1088 42.1842C55.5343 42.1842 54.0071 42.1842 52.4455 42.1842C52.4403 42.2969 52.4309 42.4036 52.4309 42.5111C52.43 43.3311 52.43 44.151 52.43 44.9709C52.43 45.0415 52.4335 45.1129 52.4283 45.1834C52.4154 45.3959 52.3646 45.4519 52.153 45.4562C51.8295 45.4622 51.5051 45.4579 51.1807 45.4579C50.9278 45.4579 50.674 45.4631 50.421 45.4562C50.2102 45.4501 50.1577 45.3942 50.1431 45.1826C50.1388 45.112 50.1414 45.0406 50.1414 44.9701C50.1414 42.6823 50.1414 40.3946 50.1414 38.1078C50.1414 38.057 50.1405 38.0062 50.1414 37.9563C50.1483 37.6595 50.1827 37.6182 50.4726 37.6165C51.019 37.6122 51.5662 37.6122 52.1134 37.6165C52.3904 37.6182 52.4266 37.6552 52.4274 37.9374C52.4309 38.7574 52.4283 39.5773 52.4292 40.3972C52.4292 40.5073 52.4292 40.6166 52.4292 40.719C52.6787 40.7852 56.7216 40.7981 57.0907 40.7353C57.0959 40.6364 57.1071 40.5297 57.1071 40.423C57.1088 39.6435 57.1079 38.864 57.1079 38.0845C57.1079 38.0037 57.1096 37.9228 57.1105 37.8419C57.1114 37.6922 57.1888 37.6199 57.3359 37.6182C57.4065 37.6174 57.4779 37.6156 57.5484 37.6156C57.9941 37.6156 58.4398 37.6156 58.8846 37.6156C59.3604 37.6156 59.3604 37.6165 59.3604 38.0785C59.3604 40.275 59.3604 42.4716 59.3604 44.6681C59.3604 44.81 59.3613 44.9511 59.3604 45.0931C59.357 45.4321 59.3329 45.4579 58.9982 45.4596C58.5017 45.4613 58.0062 45.4613 57.5097 45.4596C57.1277 45.4588 57.1088 45.4415 57.1079 45.0699C57.1062 44.2301 57.1071 43.3896 57.1071 42.5498C57.1088 42.438 57.1088 42.3279 57.1088 42.1842Z" fill="#2D1C42"/>
<path d="M47.8587 40.7225C47.5757 40.7225 47.2917 40.7182 47.0087 40.7243C46.8435 40.7277 46.7445 40.6683 46.7041 40.4988C46.5423 39.8217 46.0468 39.4819 45.4204 39.3546C44.3793 39.1429 43.328 39.1309 42.2895 39.401C41.8748 39.5086 41.4919 39.6927 41.1761 39.9947C40.8724 40.2855 40.7021 40.6408 40.6341 41.0546C40.5756 41.41 40.5911 41.7636 40.6651 42.1103C40.8088 42.7874 41.2106 43.2709 41.8232 43.585C42.2155 43.7863 42.6379 43.8939 43.0724 43.9369C43.7702 44.0048 44.4671 43.9971 45.1554 43.8336C45.4927 43.7536 45.811 43.628 46.1027 43.4396C46.4012 43.2469 46.6293 42.993 46.7282 42.6472C46.779 42.4699 46.877 42.4011 47.0534 42.402C47.6307 42.4054 48.2072 42.3977 48.7845 42.4046C49.0839 42.408 49.1338 42.4897 49.0366 42.7891C48.7905 43.5488 48.3173 44.1408 47.6669 44.5933C46.9287 45.107 46.0949 45.3823 45.2139 45.501C43.9586 45.6705 42.7102 45.6335 41.4833 45.2782C40.6745 45.0442 39.9389 44.6794 39.3375 44.0737C38.5554 43.2847 38.2715 42.3177 38.3765 41.2405C38.5408 39.5585 39.5268 38.5277 41.0806 38.0003C42.2275 37.6115 43.4149 37.5263 44.6177 37.6046C45.2655 37.6467 45.9057 37.7388 46.5251 37.941C47.2823 38.1879 47.9439 38.5785 48.4395 39.2186C48.7097 39.5679 48.8972 39.9568 49.0039 40.3844C49.0676 40.6408 49.0091 40.7165 48.7406 40.7217C48.4455 40.7268 48.1521 40.7225 47.8587 40.7225Z" fill="#2D1C42"/>
<path d="M88.1655 50.5633C88.1655 51.2412 88.1767 51.9192 88.1629 52.5972C88.1345 54.0563 87.3946 55.0905 86.0223 55.5947C85.3125 55.8554 84.5743 55.9612 83.8206 55.981C82.8552 56.0068 81.8976 55.9638 80.971 55.654C80.3369 55.4424 79.769 55.1215 79.3311 54.6027C78.8828 54.0727 78.6557 53.4515 78.6316 52.7658C78.6075 52.099 78.6213 51.4305 78.6196 50.762C78.6187 49.9627 78.6178 49.1634 78.6204 48.3633C78.6213 48.0269 78.6454 48.0037 78.9861 48.0019C79.5428 47.9994 80.0994 47.9994 80.6561 48.0019C80.9753 48.0037 81.0045 48.0312 81.0045 48.3487C81.0063 49.6745 81.0045 51.0003 81.0071 52.3261C81.0071 52.4879 81.02 52.6496 81.0355 52.8105C81.1035 53.5178 81.5113 53.9505 82.1618 54.1699C82.7881 54.3816 83.436 54.3816 84.0839 54.305C84.323 54.2766 84.5657 54.2258 84.7911 54.1432C85.3271 53.9462 85.6575 53.5599 85.7444 52.9886C85.7762 52.7796 85.7926 52.5662 85.7934 52.3545C85.7977 51.0588 85.796 49.764 85.796 48.4683C85.796 48.3874 85.7977 48.3065 85.7977 48.2256C85.7977 48.0733 85.8795 48.0054 86.0249 48.0037C86.1866 48.0019 86.3492 48.0011 86.511 48.0011C86.936 48.0011 87.3611 47.9994 87.787 48.0019C88.1475 48.0037 88.169 48.0243 88.169 48.3762C88.1707 49.1049 88.1698 49.8337 88.1698 50.5624C88.1681 50.5632 88.1672 50.5633 88.1655 50.5633Z" fill="#2D1C42"/>
<path d="M49.8521 49.5146C49.8521 50.0678 49.8521 50.5789 49.8521 51.1166C49.976 51.1218 50.0844 51.1313 50.192 51.1313C51.3561 51.1321 52.521 51.1321 53.6851 51.1321C53.766 51.1321 53.8477 51.1278 53.9278 51.1356C54.1213 51.1545 54.1799 51.2087 54.1842 51.4006C54.191 51.7137 54.1919 52.0286 54.1833 52.3418C54.1781 52.5337 54.1188 52.5836 53.9209 52.6016C53.8409 52.6085 53.7591 52.6042 53.6783 52.6051C52.5236 52.6051 51.3698 52.6051 50.2152 52.6051C50.1051 52.6051 49.995 52.6051 49.8452 52.6051C49.8255 53.2099 49.8306 53.7889 49.8427 54.3989C49.982 54.3989 50.0905 54.3989 50.1997 54.3989C51.8706 54.3989 53.5414 54.3989 55.2115 54.3989C55.2923 54.3989 55.3732 54.3998 55.4541 54.4007C55.6029 54.4024 55.6821 54.4858 55.6847 54.6269C55.6898 54.9608 55.6898 55.2946 55.6829 55.6284C55.6795 55.7729 55.5917 55.8461 55.4446 55.8435C55.3835 55.8426 55.3233 55.8444 55.2622 55.8444C52.8523 55.8444 50.4423 55.8444 48.0324 55.8444C47.9619 55.8444 47.8905 55.8452 47.8199 55.8426C47.6719 55.8375 47.6014 55.7523 47.5928 55.6112C47.5885 55.5406 47.5902 55.4692 47.5902 55.3987C47.5902 53.0809 47.5902 50.763 47.5902 48.4452C47.5902 48.0107 47.5996 48.0004 48.0307 48.0004C50.3701 47.9995 52.7086 48.0004 55.048 48.0004C55.1185 48.0004 55.1899 48.0021 55.2605 48.003C55.4076 48.0038 55.4885 48.0761 55.4894 48.2249C55.4919 48.5794 55.4919 48.933 55.4902 49.2875C55.4894 49.4355 55.4059 49.5077 55.2622 49.5129C55.1813 49.5155 55.1005 49.5155 55.0196 49.5155C53.4296 49.5155 51.8405 49.5155 50.2505 49.5155C50.13 49.5146 50.0096 49.5146 49.8521 49.5146Z" fill="#2D1C42"/>
<path d="M91.8155 49.518C91.8155 50.0669 91.8155 50.5779 91.8155 51.12C91.9308 51.1251 92.0383 51.1346 92.145 51.1346C93.2884 51.1354 94.4328 51.1354 95.5762 51.1354C95.6468 51.1354 95.7182 51.1337 95.7887 51.1363C96.0993 51.1449 96.1312 51.1767 96.1337 51.4933C96.1363 51.7764 96.1389 52.0603 96.1312 52.3434C96.1251 52.5456 96.0795 52.5869 95.8765 52.6049C95.7965 52.6118 95.7147 52.6075 95.6339 52.6075C94.4904 52.6075 93.3461 52.6075 92.2026 52.6075C92.0831 52.6075 91.9635 52.6075 91.8206 52.6075C91.8206 53.2055 91.8206 53.7776 91.8206 54.3919C91.9282 54.3954 92.0443 54.4014 92.1614 54.4014C93.8116 54.4023 95.4609 54.4014 97.1111 54.4023C97.1722 54.4023 97.2325 54.4014 97.2935 54.4023C97.6059 54.4074 97.6385 54.4384 97.6411 54.7541C97.6437 55.0269 97.6463 55.3005 97.6394 55.5732C97.6343 55.7909 97.5861 55.8339 97.3675 55.8451C97.3073 55.8485 97.2462 55.8459 97.1851 55.8459C94.7967 55.8459 92.4074 55.8459 90.019 55.8459C90.0087 55.8459 89.9983 55.8459 89.9889 55.8459C89.5587 55.8451 89.5552 55.8416 89.5552 55.3968C89.5552 53.4137 89.5552 51.4305 89.5552 49.4474C89.5552 49.0929 89.5535 48.7393 89.5561 48.3848C89.5578 48.0235 89.5768 48.0028 89.9304 48.002C90.7701 48.0003 91.6107 48.0011 92.4504 48.0011C93.9484 48.0011 95.4463 48.0011 96.9442 48.0011C97.0251 48.0011 97.106 47.9977 97.1869 48.0028C97.3951 48.0158 97.4467 48.0545 97.451 48.2515C97.4596 48.5956 97.4536 48.9398 97.4527 49.2831C97.4518 49.4328 97.3675 49.5033 97.2256 49.5119C97.1344 49.5171 97.0432 49.5154 96.9528 49.5154C95.374 49.5154 93.7952 49.5154 92.2156 49.5154C92.096 49.5179 91.9746 49.518 91.8155 49.518Z" fill="#2D1C42"/>
<path d="M63.1356 39.1296C63.1356 39.6776 63.1356 40.1887 63.1356 40.7316C63.2492 40.7367 63.3567 40.7462 63.4634 40.7462C64.6069 40.7471 65.7512 40.7471 66.8946 40.7471C66.9652 40.7471 67.0366 40.7453 67.1071 40.7479C67.4177 40.7565 67.4504 40.7884 67.4539 41.1041C67.4564 41.3872 67.459 41.6711 67.4513 41.9542C67.4453 42.1572 67.4005 42.1985 67.1983 42.2174C67.1183 42.2252 67.0366 42.22 66.9557 42.22C65.8123 42.22 64.6679 42.22 63.5245 42.22C63.4049 42.22 63.2845 42.22 63.1416 42.22C63.1416 42.8171 63.1416 43.3884 63.1416 44.0044C63.2475 44.0079 63.3636 44.0139 63.4806 44.0139C65.1205 44.0147 66.7604 44.0147 68.3994 44.0147C68.4605 44.0147 68.5207 44.0139 68.5818 44.0147C68.9355 44.0182 68.9595 44.0414 68.9621 44.3959C68.9638 44.6592 68.9673 44.9224 68.9604 45.1848C68.9552 45.4034 68.9071 45.4464 68.6894 45.4584C68.6292 45.4619 68.5681 45.4593 68.507 45.4593C66.1186 45.4593 63.7293 45.4593 61.3408 45.4593C61.3004 45.4593 61.26 45.4602 61.2195 45.4593C60.9098 45.4533 60.8762 45.424 60.8762 45.1031C60.8745 43.2817 60.8754 41.4612 60.8754 39.6398C60.8754 39.1038 60.8745 38.5669 60.8754 38.0309C60.8762 37.6291 60.8874 37.6162 61.2789 37.6153C62.0687 37.6136 62.8577 37.6145 63.6475 37.6145C65.1859 37.6145 66.7243 37.6145 68.2626 37.6145C68.3538 37.6145 68.445 37.6102 68.5354 37.6179C68.7178 37.6334 68.766 37.6756 68.7711 37.864C68.7797 38.2081 68.7737 38.5523 68.7728 38.8956C68.7728 39.0444 68.6894 39.1175 68.5474 39.1261C68.4562 39.1322 68.365 39.1296 68.2747 39.1296C66.6855 39.1296 65.0964 39.1296 63.5073 39.1296C63.3886 39.1296 63.2698 39.1296 63.1356 39.1296Z" fill="#2D1C42"/>
<path d="M86.9955 32.9982C86.894 32.9931 86.8243 32.987 86.7537 32.987C85.6301 32.9862 84.5073 32.9913 83.3836 32.9819C83.1814 32.9802 83.0747 33.0361 82.9982 33.2297C82.7899 33.7553 82.5482 34.269 82.3425 34.7955C82.2556 35.0166 82.1378 35.1104 81.896 35.1035C81.36 35.0889 80.8231 35.101 80.2871 35.0984C79.8793 35.0967 79.8294 35.0201 79.9946 34.6536C80.4764 33.5841 80.9582 32.5156 81.4409 31.447C82.0225 30.1573 82.6101 28.8693 83.1823 27.5753C83.2855 27.3413 83.4111 27.2372 83.6796 27.2424C84.5795 27.2587 85.4812 27.2553 86.3812 27.2441C86.6066 27.2415 86.7305 27.3172 86.8243 27.5211C87.9281 29.9173 89.0398 32.3099 90.1488 34.7043C90.1746 34.7594 90.2013 34.8153 90.215 34.873C90.2383 34.9771 90.1978 35.0562 90.0912 35.0786C90.0129 35.0949 89.9303 35.0984 89.8502 35.0984C89.3039 35.1001 88.7567 35.0889 88.2112 35.1044C87.9686 35.1113 87.8481 35.0184 87.7621 34.7981C87.5668 34.2991 87.3482 33.8104 87.1383 33.3174C87.0944 33.2142 87.0471 33.1135 86.9955 32.9982ZM86.3433 31.5623C86.2538 31.1872 85.1706 28.7016 85.0304 28.5329C84.7688 28.9872 83.7966 31.3412 83.7828 31.5623C84.6286 31.5623 85.4743 31.5623 86.3433 31.5623Z" fill="#2D1C42"/>
<path d="M63.2349 53.734C61.9323 53.734 60.658 53.734 59.3588 53.734C59.3184 53.8192 59.2728 53.907 59.2341 53.9982C59.0078 54.5281 58.7755 55.0564 58.5604 55.5907C58.4856 55.7774 58.3797 55.8548 58.175 55.8505C57.608 55.8393 57.041 55.8471 56.474 55.8462C56.4335 55.8462 56.3922 55.8488 56.3527 55.8436C56.1703 55.8204 56.1109 55.7266 56.1711 55.5477C56.1995 55.4616 56.2425 55.3808 56.2804 55.2973C57.3283 52.9735 58.3806 50.6522 59.4199 48.3249C59.5258 48.0874 59.6522 47.9919 59.9172 47.9962C60.8181 48.0117 61.7197 48.01 62.6206 47.9971C62.8597 47.9937 62.9793 48.078 63.0791 48.2939C64.1692 50.6651 65.2688 53.032 66.3658 55.3997C66.5379 55.7722 66.4914 55.8445 66.087 55.8462C65.5304 55.8479 64.9728 55.8402 64.4162 55.8505C64.2148 55.854 64.1047 55.7851 64.0273 55.595C63.7752 54.9773 63.5059 54.3664 63.2349 53.734ZM62.5784 52.3187C62.5156 51.9754 61.4109 49.4399 61.262 49.2808C60.9523 49.8563 60.0334 52.0864 60.0136 52.3187C60.8611 52.3187 61.7077 52.3187 62.5784 52.3187Z" fill="#2D1C42"/>
<path d="M93.3738 33.5941C93.5347 33.5941 93.6543 33.5941 93.7739 33.5941C95.2219 33.5941 96.67 33.5941 98.118 33.5941C98.5835 33.5941 98.5989 33.6096 98.5998 34.0665C98.5998 34.3091 98.605 34.5526 98.5981 34.7952C98.5912 35.0456 98.5439 35.0869 98.2883 35.0998C98.2281 35.1024 98.167 35.1006 98.1059 35.1006C95.9386 35.1006 93.7722 35.1006 91.6049 35.1006C91.1024 35.1006 91.1016 35.0989 91.1016 34.5913C91.1016 32.3139 91.1016 30.0365 91.1016 27.7591C91.1016 27.7385 91.1016 27.7187 91.1016 27.698C91.1033 27.2747 91.1265 27.2506 91.5464 27.2506C92.0222 27.2498 92.498 27.2498 92.9738 27.2506C93.3334 27.2515 93.373 27.2894 93.373 27.6524C93.3738 29.4945 93.3738 31.3365 93.3738 33.1794C93.3738 33.299 93.3738 33.4195 93.3738 33.5941Z" fill="#2D1C42"/>
<path d="M52.9048 33.5956C53.0777 33.5956 53.1973 33.5956 53.3178 33.5956C54.7357 33.5956 56.1527 33.5956 57.5706 33.5956C57.6618 33.5956 57.753 33.5922 57.8442 33.5982C58.0731 33.6137 58.123 33.6619 58.1282 33.8993C58.1351 34.2031 58.1359 34.5068 58.1282 34.8105C58.1221 35.0462 58.074 35.0867 57.8365 35.1013C57.7763 35.1047 57.7152 35.103 57.6541 35.103C55.4773 35.103 53.2997 35.103 51.1229 35.103C50.6403 35.103 50.6334 35.0953 50.6334 34.6109C50.6334 32.3232 50.6334 30.0354 50.6334 27.7477C50.6334 27.6866 50.6317 27.6264 50.6342 27.5653C50.6454 27.3175 50.6988 27.2556 50.9397 27.2539C51.4963 27.2487 52.0539 27.2487 52.6105 27.2539C52.8351 27.2556 52.891 27.3184 52.9048 27.5455C52.9099 27.6264 52.9065 27.7073 52.9065 27.7882C52.9065 29.5898 52.9065 31.3914 52.9065 33.193C52.9048 33.3134 52.9048 33.4339 52.9048 33.5956Z" fill="#2D1C42"/>
<path d="M41.44 54.3369C41.5889 54.3369 41.6973 54.3369 41.8057 54.3369C43.2727 54.3369 44.7396 54.3369 46.2066 54.3369C46.2874 54.3369 46.3683 54.3361 46.4492 54.3395C46.5808 54.3455 46.6591 54.4135 46.6609 54.5469C46.6643 54.9108 46.6643 55.2747 46.66 55.6387C46.6583 55.7729 46.5748 55.8374 46.4449 55.8426C46.3743 55.8452 46.3029 55.8452 46.2324 55.8452C44.0272 55.8452 41.8212 55.8452 39.616 55.8452C39.5653 55.8452 39.5145 55.8469 39.4646 55.8443C39.2452 55.8323 39.2013 55.7901 39.1893 55.5741C39.1858 55.5139 39.1884 55.4528 39.1884 55.3917C39.1884 53.0756 39.1884 50.7595 39.1884 48.4443C39.1884 48.0055 39.191 48.0021 39.6238 48.0012C40.109 48.0003 40.5952 47.9986 41.0804 48.0021C41.4168 48.0038 41.4392 48.027 41.44 48.3677C41.4409 50.2184 41.4409 52.069 41.4409 53.9197C41.4401 54.041 41.44 54.1614 41.44 54.3369Z" fill="#2D1C42"/>
<path d="M59.7552 0.125C60.1639 0.213618 60.5717 0.301376 60.9804 0.391714C61.0785 0.413223 61.1757 0.439894 61.2988 0.471728C61.2712 0.932024 61.0966 1.33898 60.9589 1.78637C60.7705 1.76916 60.5941 1.7726 60.4289 1.73389C59.7131 1.56611 58.9869 1.55321 58.2616 1.59623C57.9045 1.61774 57.5406 1.69431 57.2007 1.80702C56.7172 1.96791 56.3989 2.33184 56.2638 2.82139C56.1192 3.34621 56.1098 3.88222 56.2354 4.41651C56.3593 4.94564 56.7017 5.29667 57.1982 5.44809C57.5948 5.5694 58.0241 5.65372 58.4363 5.64253C59.3474 5.61844 60.256 5.5238 61.2273 5.45325C61.3228 5.79998 61.433 6.20005 61.5543 6.644C61.2471 6.73004 60.9623 6.835 60.6689 6.88749C59.6503 7.0716 58.6212 7.1542 57.5879 7.06558C56.9366 7.00966 56.2982 6.88835 55.7028 6.58119C55.1616 6.30244 54.7555 5.90581 54.5267 5.34915C54.038 4.15668 54.069 2.96335 54.6351 1.80788C55.0094 1.04473 55.683 0.624013 56.4806 0.395155C56.8402 0.291911 57.2076 0.214478 57.5707 0.125C58.3003 0.125 59.0273 0.125 59.7552 0.125Z" fill="#2D1C42"/>
<path d="M39.9417 19.5617C39.3928 19.5617 38.9187 19.5617 38.418 19.5617C38.418 17.3342 38.418 15.1325 38.418 12.9042C38.5419 12.8922 38.6529 12.8732 38.7647 12.8732C42.2398 12.8715 45.7157 12.8801 49.1908 12.8672C50.077 12.8638 50.9254 13.4058 51.1955 14.2008C51.2738 14.4305 51.3237 14.6817 51.3254 14.9235C51.3375 16.3482 51.3323 17.7722 51.3297 19.1969C51.3297 19.3105 51.3082 19.4241 51.2945 19.5617C50.7722 19.5617 50.2706 19.5617 49.7217 19.5617C49.7088 19.3793 49.6873 19.2115 49.6864 19.0438C49.683 17.9098 49.6847 16.7759 49.6847 15.6419C49.6847 15.4819 49.6873 15.3218 49.6744 15.1627C49.6313 14.6 49.2313 14.1664 48.6668 14.1483C47.7807 14.1199 46.8927 14.1328 46.0057 14.1405C45.7467 14.1431 45.6753 14.2274 45.6469 14.4821C45.634 14.5974 45.64 14.7144 45.64 14.8306C45.64 16.2261 45.6409 17.6216 45.6383 19.0171C45.6383 19.1875 45.6228 19.3578 45.6134 19.5574C45.0902 19.5574 44.6033 19.5574 44.0595 19.5574C44.05 19.3905 44.0328 19.2236 44.0328 19.0558C44.0302 17.6749 44.032 16.294 44.0311 14.9132C44.0311 14.797 44.0354 14.68 44.0277 14.5647C44.007 14.2335 43.9322 14.1423 43.6078 14.1397C42.5315 14.1311 41.456 14.1302 40.3796 14.1397C40.0183 14.1431 39.9434 14.2472 39.9426 14.686C39.9391 16.1254 39.9408 17.5639 39.9408 19.0033C39.9417 19.1737 39.9417 19.3449 39.9417 19.5617Z" fill="#2D1C42"/>
<path d="M94.4234 12.9429C94.2497 13.3034 94.0931 13.6733 93.89 14.0158C93.8392 14.1009 93.6379 14.1276 93.5046 14.1293C92.6906 14.1397 91.8758 14.1319 91.0619 14.1371C90.889 14.1379 90.7066 14.1379 90.5448 14.1896C90.0536 14.3461 89.749 14.6955 89.7335 15.2117C89.706 16.1116 89.7163 17.0141 89.7258 17.9149C89.7292 18.2126 89.8565 18.3167 90.1646 18.3443C90.2515 18.352 90.3392 18.3486 90.4261 18.3486C91.8655 18.3486 93.3058 18.3494 94.7452 18.3477C94.9018 18.3477 95.0584 18.3331 95.2606 18.3236C95.3071 17.4271 95.2769 16.5607 95.2821 15.6952C95.2873 14.8228 95.283 13.9512 95.283 13.0788C95.283 12.2099 95.283 11.3409 95.283 10.4375C95.8138 10.4375 96.2999 10.4375 96.8385 10.4375C96.8532 10.5734 96.8807 10.7111 96.8807 10.8488C96.8833 13.6252 96.8833 16.4016 96.8816 19.178C96.8816 19.2915 96.8618 19.4051 96.8471 19.5626C96.6794 19.572 96.5254 19.5892 96.3705 19.5892C94.1017 19.5909 91.8337 19.5901 89.5649 19.5909C89.287 19.5909 89.0151 19.5823 88.7656 19.4292C88.3793 19.1917 88.1392 18.87 88.1383 18.4036C88.1358 17.1974 88.1366 15.9903 88.1383 14.7841C88.1392 13.9641 88.8258 12.9549 89.9727 12.8999C91.4087 12.831 92.8507 12.8827 94.2901 12.8835C94.315 12.8818 94.34 12.9042 94.4234 12.9429Z" fill="#2D1C42"/>
<path d="M112.377 18.3373C112.387 18.1618 112.401 18.0344 112.402 17.9062C112.403 17.0923 112.406 16.2784 112.402 15.4636C112.397 14.6007 111.947 14.1464 111.084 14.1438C109.63 14.1387 108.175 14.1421 106.721 14.1421C106.566 14.1421 106.411 14.1421 106.172 14.1421C106.39 13.6792 106.572 13.2929 106.757 12.9015C106.854 12.892 106.94 12.8757 107.025 12.8757C108.668 12.8748 110.312 12.8628 111.955 12.8817C112.856 12.892 113.499 13.348 113.854 14.1705C113.955 14.4037 113.998 14.6773 114.001 14.9328C114.015 16.3722 114.009 17.8107 114.006 19.2501C114.006 19.3482 113.98 19.4463 113.965 19.5573C113.849 19.5693 113.75 19.5891 113.651 19.5891C111.222 19.5908 108.793 19.5891 106.365 19.5917C106.095 19.5917 105.846 19.5392 105.623 19.3852C105.265 19.1391 105.054 18.8096 105.051 18.3657C105.049 17.8426 105.043 17.3186 105.051 16.7955C105.063 16.0693 105.526 15.603 106.258 15.5944C107.189 15.5832 108.12 15.591 109.05 15.591C109.486 15.591 109.921 15.591 110.432 15.591C110.322 15.8439 110.224 16.0461 110.146 16.2552C110.071 16.4574 109.925 16.4926 109.734 16.4909C108.933 16.4849 108.134 16.4883 107.334 16.4892C106.604 16.4901 106.604 16.4901 106.603 17.2119C106.603 17.4442 106.598 17.6774 106.605 17.9097C106.616 18.2495 106.706 18.3373 107.05 18.3605C107.108 18.3648 107.166 18.3622 107.225 18.3622C108.796 18.3622 110.366 18.3631 111.937 18.3614C112.065 18.3622 112.194 18.3485 112.377 18.3373Z" fill="#2D1C42"/>
<path d="M60.1981 18.3376C60.1981 17.9728 60.1981 17.669 60.1981 17.3653C60.1981 16.7261 60.1697 16.0843 60.205 15.4467C60.2488 14.6569 59.6776 14.12 58.8765 14.1338C57.4225 14.1579 55.9676 14.1407 54.5135 14.1407C54.3595 14.1407 54.2055 14.1407 53.987 14.1407C54.1556 13.763 54.2933 13.4636 54.4223 13.1607C54.5127 12.9491 54.6503 12.863 54.8921 12.8673C55.6914 12.8828 56.4915 12.8725 57.2917 12.8734C58.0919 12.8734 58.8912 12.8665 59.6913 12.8759C60.9268 12.8914 61.8027 13.7664 61.8113 15.0011C61.8208 16.3966 61.8147 17.7921 61.8122 19.1876C61.8122 19.3012 61.7941 19.4139 61.7829 19.5507C61.6538 19.5653 61.542 19.5885 61.431 19.5885C59.0168 19.5903 56.6025 19.5877 54.1883 19.5911C53.6248 19.592 53.2049 19.3631 52.9657 18.8486C52.9003 18.7084 52.8693 18.5423 52.8659 18.3866C52.8538 17.8342 52.8513 17.2819 52.8633 16.7295C52.8771 16.0868 53.3142 15.6093 53.9508 15.6007C55.3318 15.5809 56.7135 15.5956 58.0953 15.5981C58.1203 15.5981 58.1443 15.6205 58.2106 15.6524C58.1082 15.8847 58.011 16.1221 57.9009 16.3527C57.8217 16.5187 57.6582 16.4869 57.5163 16.4869C56.8331 16.4895 56.1491 16.4878 55.466 16.4878C55.2913 16.4878 55.1167 16.486 54.942 16.4886C54.4559 16.4964 54.3931 16.5592 54.3879 17.0479C54.3853 17.3387 54.3802 17.6295 54.3905 17.9203C54.4008 18.2223 54.5109 18.329 54.8147 18.3573C54.9016 18.3651 54.9893 18.3616 55.0762 18.3616C56.6034 18.3616 58.1306 18.3625 59.6578 18.3608C59.8161 18.3608 59.9727 18.3479 60.1981 18.3376Z" fill="#2D1C42"/>
<path d="M62.7328 0.242745C63.3274 0.242745 63.903 0.242745 64.5302 0.242745C64.5302 1.18829 64.5302 2.11146 64.5302 3.01743C64.8898 3.131 67.7833 3.15164 68.3047 3.04926C68.3047 2.13813 68.3047 1.21496 68.3047 0.228979C68.6531 0.225537 68.9508 0.221236 69.2494 0.219515C69.5393 0.217794 69.8284 0.219515 70.108 0.219515C70.2164 0.588612 70.2242 6.50363 70.1201 6.91317C69.5496 6.91317 68.9723 6.91317 68.3494 6.91317C68.278 6.17153 68.3615 5.43334 68.3004 4.71321C67.9528 4.61341 65.049 4.59792 64.5543 4.69514C64.5543 5.40495 64.5543 6.12507 64.5543 6.82885C64.211 6.94242 63.3093 6.96565 62.7492 6.88908C62.6606 6.57246 62.639 0.777893 62.7328 0.242745Z" fill="#2D1C42"/>
<path d="M52.8033 2.84729C52.8033 3.31533 52.8033 3.70163 52.8033 4.14988C52.0849 4.14988 51.3914 4.14988 50.6979 4.14988C50.0028 4.14988 49.3084 4.14988 48.578 4.14988C48.578 4.62911 48.578 5.05241 48.578 5.53421C50.1525 5.53421 51.7003 5.53421 53.2817 5.53421C53.2817 6.01774 53.2817 6.44276 53.2817 6.8979C51.0817 6.8979 48.9101 6.8979 46.7109 6.8979C46.7109 4.68417 46.7109 2.49454 46.7109 0.304044C47 0.203381 52.4703 0.171547 53.0683 0.273071C53.0683 0.694651 53.0683 1.12225 53.0683 1.59115C52.8997 1.60148 52.7448 1.61782 52.5899 1.61868C51.4267 1.62127 50.2635 1.61868 49.0994 1.62127C48.929 1.62127 48.7586 1.63847 48.5702 1.6488C48.5702 2.06091 48.5702 2.43001 48.5702 2.84815C49.9899 2.84729 51.3785 2.84729 52.8033 2.84729Z" fill="#2D1C42"/>
<path d="M86.3452 19.5575C85.8152 19.5575 85.3274 19.5575 84.8017 19.5575C84.7896 19.3622 84.7716 19.1927 84.7716 19.0233C84.769 17.8316 84.775 16.64 84.7647 15.4493C84.763 15.2213 84.7492 14.9726 84.6588 14.7705C84.4721 14.3497 84.1082 14.145 83.6479 14.1372C83.1102 14.1286 82.5724 14.1329 82.0347 14.1329C81.3808 14.1321 80.7269 14.1329 80.0721 14.1329C79.9302 14.1329 79.7891 14.1329 79.5869 14.1329C79.5869 15.9664 79.5869 17.7447 79.5869 19.555C79.0414 19.555 78.5562 19.555 78.0391 19.555C78.0391 17.3387 78.0391 15.1387 78.0391 12.9129C78.1285 12.9009 78.2111 12.8794 78.2937 12.8794C80.2993 12.8751 82.3057 12.8665 84.3113 12.8742C85.2344 12.8777 85.9589 13.3999 86.2703 14.2663C86.3332 14.4401 86.3684 14.6337 86.3693 14.8186C86.377 16.3148 86.3745 17.8119 86.3736 19.308C86.3745 19.3777 86.359 19.4483 86.3452 19.5575Z" fill="#2D1C42"/>
<path d="M41.0931 6.89501C41.0931 5.17342 41.0931 3.5043 41.0931 1.78185C40.6397 1.72248 40.2078 1.75862 39.7793 1.7526C39.3448 1.74657 38.9094 1.75088 38.4276 1.75088C38.3597 1.24068 38.4087 0.758012 38.3958 0.246094C40.8444 0.246094 43.2484 0.246094 45.6858 0.246094C45.6858 0.738224 45.6858 1.2097 45.6858 1.73969C44.7962 1.73969 43.9177 1.73969 42.9756 1.73969C42.9636 2.64652 42.9713 3.49828 42.9696 4.35004C42.9687 5.1889 42.9696 6.02862 42.9696 6.89501C42.3295 6.89501 41.7418 6.89501 41.0931 6.89501Z" fill="#2D1C42"/>
<path d="M66.5238 12.8724C67.2336 12.8724 67.9305 12.8724 68.6275 12.8724C69.0929 12.8724 69.5584 12.8681 70.023 12.875C71.0124 12.8888 71.7515 13.4231 72.0561 14.3523C72.1094 14.5149 72.1361 14.693 72.137 14.8642C72.143 16.3466 72.1413 17.829 72.1395 19.3114C72.1395 19.382 72.1258 19.4516 72.1146 19.5558C71.5889 19.5558 71.0778 19.5558 70.5169 19.5558C70.5169 19.3734 70.5169 19.2176 70.5169 19.061C70.5169 17.8402 70.5194 16.6193 70.516 15.3985C70.5134 14.5768 70.0798 14.1432 69.2495 14.138C68.3048 14.132 67.3593 14.1372 66.4146 14.1346C66.2752 14.1346 66.1366 14.1182 65.9336 14.1053C66.1452 13.6614 66.3302 13.2759 66.5238 12.8724Z" fill="#2D1C42"/>
<path d="M100.891 19.556C100.36 19.556 99.8608 19.556 99.3377 19.556C99.3291 19.3831 99.3171 19.2411 99.3171 19.0991C99.3153 17.7475 99.3515 16.3942 99.3059 15.0442C99.2671 13.8982 100.186 12.846 101.465 12.8675C102.7 12.8882 103.936 12.871 105.173 12.8718C105.272 12.8718 105.371 12.8839 105.532 12.895C105.333 13.2882 105.168 13.6556 104.959 13.9955C104.904 14.0849 104.713 14.1254 104.583 14.1279C103.798 14.14 103.012 14.1323 102.227 14.1366C102.068 14.1374 101.902 14.1374 101.751 14.1787C101.234 14.3198 100.926 14.7199 100.917 15.2697C100.906 15.9967 100.914 16.7228 100.914 17.4498C100.914 18.0022 100.916 18.5545 100.913 19.1069C100.912 19.248 100.899 19.39 100.891 19.556Z" fill="#2D1C42"/>
<path d="M65.1756 19.5703C64.6628 19.5703 64.1724 19.5703 63.6872 19.5703C63.5951 19.2425 63.5727 11.0028 63.6622 10.4375C64.1561 10.4375 64.656 10.4375 65.1541 10.4375C65.2462 10.7507 65.2711 18.9827 65.1756 19.5703Z" fill="#2D1C42"/>
<path d="M75.841 12.4297C75.841 14.8181 75.841 17.1634 75.841 19.5561C75.3463 19.6292 74.8464 19.5854 74.2958 19.5828C74.2872 19.4202 74.2725 19.2817 74.2725 19.1423C74.2708 17.3252 74.2777 15.5081 74.2657 13.6918C74.2639 13.3933 74.3405 13.2083 74.6244 13.0784C74.9531 12.9278 75.256 12.7222 75.5726 12.545C75.6431 12.5045 75.7223 12.4796 75.841 12.4297Z" fill="#2D1C42"/>
<path d="M74.2969 12.265C74.2969 11.6051 74.2969 11.0338 74.2969 10.4238C74.8208 10.3714 75.3182 10.3782 75.8705 10.4213C75.8705 10.6966 75.8877 10.9418 75.8619 11.1818C75.8516 11.2773 75.769 11.3961 75.6847 11.4477C75.2545 11.7153 74.8131 11.9639 74.2969 12.265Z" fill="#2D1C42"/>
</svg>
