<svg width="24" height="24" viewBox="0 0 24 24" fill="none" xmlns="http://www.w3.org/2000/svg">
<path d="M4.18371 14.7224C5.29303 18.2896 8.1447 22 11.9972 22C15.8557 22 18.7013 18.3015 19.8106 14.7224C20.7572 14.4002 21.553 13.4696 21.8666 12.2647C22.1198 11.2804 22.0112 10.2901 21.5531 9.54449C21.2637 9.0613 20.8537 8.73917 20.3714 8.57214C22.7045 0.346019 7.373 0.465324 4.0029 5.49406C3.33972 6.4843 3.01416 7.66542 3.20709 8.769C2.90564 8.94796 2.6464 9.21043 2.44141 9.54449C1.99528 10.2901 1.88073 11.2804 2.12791 12.2647C2.44738 13.4696 3.2432 14.4002 4.18371 14.7224ZM20.6125 11.9485C20.3593 12.9149 19.7201 13.4816 19.2077 13.5532L18.7857 13.6068L18.6712 14.0125C17.7427 17.3411 15.1563 20.7115 11.9972 20.7115C8.83803 20.7115 6.24559 17.3471 5.32317 14.0125L5.20862 13.6068L4.7866 13.5532C4.27414 13.4875 3.62905 12.9089 3.38186 11.9485C3.21305 11.2983 3.27937 10.6481 3.55067 10.2007C3.58685 10.141 3.62905 10.0814 3.68331 10.0217C3.80992 10.2305 3.96064 10.4393 4.14753 10.6242C5.04584 11.5548 6.43852 11.9843 7.71665 11.7576C10.6467 11.2327 12.371 10.3916 14.3484 8.95989C16.1692 7.64156 16.5852 8.25599 17.6583 9.37746C18.0441 9.7831 18.5627 9.89047 19.051 9.80696V9.81292L19.6599 9.75924C19.7503 9.75327 19.8408 9.75327 19.9131 9.7652C20.1844 9.83082 20.3593 10.0396 20.4557 10.2066C20.715 10.654 20.7813 11.3042 20.6125 11.9485Z" fill="#2D1C42"/>
</svg>
